<mxfile><diagram id="utHp_zREA7DCPdS8Lbcr" name="Modelo entidad-relacion1: Escuela"><mxGraphModel dx="908" dy="644" grid="1" gridSize="10" guides="1" tooltips="1" connect="1" arrows="1" fold="1" page="1" pageScale="1" pageWidth="850" pageHeight="1100" math="0" shadow="0"><root><mxCell id="0"/><mxCell id="1" parent="0"/><mxCell id="3" value="Escuela" style="whiteSpace=wrap;html=1;align=center;fillColor=#f8cecc;strokeColor=#b85450;" vertex="1" parent="1"><mxGeometry x="490" y="220" width="100" height="40" as="geometry"/></mxCell><mxCell id="17" style="edgeStyle=none;html=1;exitX=1;exitY=0.5;exitDx=0;exitDy=0;endArrow=baseDash;endFill=0;" edge="1" parent="1" source="4" target="3"><mxGeometry relative="1" as="geometry"><Array as="points"><mxPoint x="380" y="230"/><mxPoint x="400" y="230"/><mxPoint x="400" y="240"/><mxPoint x="420" y="240"/></Array></mxGeometry></mxCell><mxCell id="4" value="Alumnos" style="ellipse;whiteSpace=wrap;html=1;align=center;fillColor=#f8cecc;strokeColor=#b85450;" vertex="1" parent="1"><mxGeometry x="130" y="210" width="100" height="40" as="geometry"/></mxCell><mxCell id="18" style="edgeStyle=none;html=1;exitX=1;exitY=0.5;exitDx=0;exitDy=0;endArrow=baseDash;endFill=0;entryX=0;entryY=0.5;entryDx=0;entryDy=0;" edge="1" parent="1" source="8" target="3"><mxGeometry relative="1" as="geometry"><mxPoint x="360" y="240" as="targetPoint"/><Array as="points"><mxPoint x="360" y="290"/><mxPoint x="400" y="290"/><mxPoint x="400" y="270"/><mxPoint x="400" y="250"/><mxPoint x="400" y="240"/></Array></mxGeometry></mxCell><mxCell id="8" value="CCT de la escuela" style="ellipse;whiteSpace=wrap;html=1;align=center;fillColor=#f8cecc;strokeColor=#b85450;" vertex="1" parent="1"><mxGeometry x="130" y="270" width="100" height="40" as="geometry"/></mxCell><mxCell id="16" style="edgeStyle=none;html=1;entryX=0;entryY=0.5;entryDx=0;entryDy=0;endArrow=baseDash;endFill=0;" edge="1" parent="1" source="9" target="3"><mxGeometry relative="1" as="geometry"><Array as="points"><mxPoint x="400" y="170"/><mxPoint x="400" y="240"/></Array></mxGeometry></mxCell><mxCell id="9" value="ID Escuela" style="ellipse;whiteSpace=wrap;html=1;align=center;fontStyle=4;fillColor=#f8cecc;strokeColor=#b85450;" vertex="1" parent="1"><mxGeometry x="130" y="150" width="100" height="40" as="geometry"/></mxCell><mxCell id="19" style="edgeStyle=none;html=1;exitX=1;exitY=0.5;exitDx=0;exitDy=0;endArrow=baseDash;endFill=0;entryX=0;entryY=0.5;entryDx=0;entryDy=0;" edge="1" parent="1" source="10" target="3"><mxGeometry relative="1" as="geometry"><mxPoint x="360" y="240" as="targetPoint"/><Array as="points"><mxPoint x="400" y="350"/><mxPoint x="400" y="240"/></Array></mxGeometry></mxCell><mxCell id="10" value="Telefono&amp;nbsp;" style="ellipse;shape=doubleEllipse;margin=3;whiteSpace=wrap;html=1;align=center;fillColor=#f8cecc;strokeColor=#b85450;" vertex="1" parent="1"><mxGeometry x="130" y="330" width="100" height="40" as="geometry"/></mxCell><mxCell id="20" style="edgeStyle=none;html=1;exitX=1;exitY=0.5;exitDx=0;exitDy=0;endArrow=baseDash;endFill=0;entryX=0;entryY=0.5;entryDx=0;entryDy=0;" edge="1" parent="1" source="11" target="3"><mxGeometry relative="1" as="geometry"><mxPoint x="360" y="240" as="targetPoint"/><Array as="points"><mxPoint x="400" y="410"/><mxPoint x="400" y="320"/><mxPoint x="400" y="280"/><mxPoint x="400" y="260"/><mxPoint x="400" y="240"/></Array></mxGeometry></mxCell><mxCell id="11" value="Direccion&amp;nbsp;" style="ellipse;whiteSpace=wrap;html=1;align=center;fillColor=#f8cecc;strokeColor=#b85450;" vertex="1" parent="1"><mxGeometry x="130" y="390" width="100" height="40" as="geometry"/></mxCell><mxCell id="23" style="edgeStyle=none;html=1;entryX=0.5;entryY=1;entryDx=0;entryDy=0;endArrow=ERmany;endFill=0;" edge="1" parent="1" source="22" target="3"><mxGeometry relative="1" as="geometry"/></mxCell><mxCell id="22" value="tiene" style="shape=rhombus;perimeter=rhombusPerimeter;whiteSpace=wrap;html=1;align=center;fillColor=#f8cecc;strokeColor=#b85450;" vertex="1" parent="1"><mxGeometry x="480" y="350" width="120" height="60" as="geometry"/></mxCell><mxCell id="25" style="edgeStyle=none;html=1;exitX=0.5;exitY=0;exitDx=0;exitDy=0;entryX=0.5;entryY=1;entryDx=0;entryDy=0;endArrow=none;endFill=0;" edge="1" parent="1" source="24" target="22"><mxGeometry relative="1" as="geometry"/></mxCell><mxCell id="24" value="ID Tipo Escuela" style="whiteSpace=wrap;html=1;align=center;fillColor=#f8cecc;strokeColor=#b85450;" vertex="1" parent="1"><mxGeometry x="490" y="560" width="100" height="40" as="geometry"/></mxCell><mxCell id="34" style="edgeStyle=none;html=1;exitX=0;exitY=0.5;exitDx=0;exitDy=0;endArrow=none;endFill=0;" edge="1" parent="1" source="26"><mxGeometry relative="1" as="geometry"><mxPoint x="590" y="580" as="targetPoint"/><Array as="points"><mxPoint x="660" y="520"/><mxPoint x="660" y="550"/><mxPoint x="660" y="580"/></Array></mxGeometry></mxCell><mxCell id="26" value="Calle" style="ellipse;whiteSpace=wrap;html=1;align=center;fillColor=#f8cecc;strokeColor=#b85450;" vertex="1" parent="1"><mxGeometry x="680" y="500" width="100" height="40" as="geometry"/></mxCell><mxCell id="33" style="edgeStyle=none;html=1;exitX=0;exitY=0.5;exitDx=0;exitDy=0;entryX=1;entryY=0.5;entryDx=0;entryDy=0;endArrow=none;endFill=0;" edge="1" parent="1" source="27" target="24"><mxGeometry relative="1" as="geometry"/></mxCell><mxCell id="27" value="Carreras" style="ellipse;whiteSpace=wrap;html=1;align=center;fillColor=#f8cecc;strokeColor=#b85450;" vertex="1" parent="1"><mxGeometry x="680" y="560" width="100" height="40" as="geometry"/></mxCell><mxCell id="35" style="edgeStyle=none;html=1;exitX=0;exitY=0.5;exitDx=0;exitDy=0;endArrow=none;endFill=0;" edge="1" parent="1" source="30"><mxGeometry relative="1" as="geometry"><mxPoint x="590" y="580" as="targetPoint"/><Array as="points"><mxPoint x="660" y="630"/><mxPoint x="660" y="580"/></Array></mxGeometry></mxCell><mxCell id="30" value="IDTipoEscuela" style="ellipse;whiteSpace=wrap;html=1;align=center;fontStyle=4;fillColor=#f8cecc;strokeColor=#b85450;" vertex="1" parent="1"><mxGeometry x="680" y="610" width="100" height="40" as="geometry"/></mxCell><mxCell id="36" style="edgeStyle=none;html=1;exitX=0;exitY=0.5;exitDx=0;exitDy=0;entryX=1;entryY=0.5;entryDx=0;entryDy=0;endArrow=none;endFill=0;" edge="1" parent="1" source="32" target="24"><mxGeometry relative="1" as="geometry"><Array as="points"><mxPoint x="660" y="690"/><mxPoint x="660" y="640"/><mxPoint x="660" y="580"/></Array></mxGeometry></mxCell><mxCell id="32" value="&lt;span style=&quot;border-bottom: 1px dotted&quot;&gt;IDAlumno&lt;/span&gt;" style="ellipse;whiteSpace=wrap;html=1;align=center;fillColor=#f8cecc;strokeColor=#b85450;" vertex="1" parent="1"><mxGeometry x="680" y="670" width="100" height="40" as="geometry"/></mxCell><mxCell id="37" value="" style="endArrow=ERmany;html=1;rounded=0;endFill=0;entryX=0.5;entryY=1;entryDx=0;entryDy=0;exitX=0.5;exitY=0;exitDx=0;exitDy=0;" edge="1" parent="1" source="39" target="24"><mxGeometry relative="1" as="geometry"><mxPoint x="540" y="760" as="sourcePoint"/><mxPoint x="540" y="750" as="targetPoint"/><Array as="points"><mxPoint x="540" y="710"/></Array></mxGeometry></mxCell><mxCell id="41" style="edgeStyle=none;html=1;exitX=0.5;exitY=1;exitDx=0;exitDy=0;endArrow=none;endFill=0;entryX=0.5;entryY=0;entryDx=0;entryDy=0;" edge="1" parent="1" source="39" target="42"><mxGeometry relative="1" as="geometry"><mxPoint x="540" y="880" as="targetPoint"/></mxGeometry></mxCell><mxCell id="39" value="tiene" style="shape=rhombus;perimeter=rhombusPerimeter;whiteSpace=wrap;html=1;align=center;fillColor=#f8cecc;strokeColor=#b85450;" vertex="1" parent="1"><mxGeometry x="480" y="750" width="120" height="60" as="geometry"/></mxCell><mxCell id="42" value="Alumno&amp;nbsp;" style="whiteSpace=wrap;html=1;align=center;fillColor=#f8cecc;strokeColor=#b85450;" vertex="1" parent="1"><mxGeometry x="490" y="980" width="100" height="40" as="geometry"/></mxCell><mxCell id="48" style="edgeStyle=none;html=1;exitX=1;exitY=0.5;exitDx=0;exitDy=0;entryX=0;entryY=0.5;entryDx=0;entryDy=0;endArrow=baseDash;endFill=0;" edge="1" parent="1" source="43" target="42"><mxGeometry relative="1" as="geometry"><Array as="points"><mxPoint x="350" y="940"/><mxPoint x="370" y="940"/><mxPoint x="390" y="940"/><mxPoint x="440" y="940"/><mxPoint x="440" y="1000"/></Array></mxGeometry></mxCell><mxCell id="43" value="ID Alumno&amp;nbsp;" style="ellipse;whiteSpace=wrap;html=1;align=center;fontStyle=4;fillColor=#f8cecc;strokeColor=#b85450;" vertex="1" parent="1"><mxGeometry x="230" y="920" width="100" height="40" as="geometry"/></mxCell><mxCell id="49" style="edgeStyle=none;html=1;exitX=1;exitY=0.5;exitDx=0;exitDy=0;entryX=0;entryY=0.5;entryDx=0;entryDy=0;endArrow=none;endFill=0;" edge="1" parent="1" source="44" target="42"><mxGeometry relative="1" as="geometry"><Array as="points"><mxPoint x="460" y="1000"/><mxPoint x="490" y="1000"/><mxPoint x="490" y="980"/></Array></mxGeometry></mxCell><mxCell id="44" value="Nombre&amp;nbsp;" style="ellipse;whiteSpace=wrap;html=1;align=center;fillColor=#f8cecc;strokeColor=#b85450;" vertex="1" parent="1"><mxGeometry x="230" y="980" width="100" height="40" as="geometry"/></mxCell><mxCell id="50" style="edgeStyle=none;html=1;exitX=1;exitY=0.5;exitDx=0;exitDy=0;endArrow=none;endFill=0;entryX=0;entryY=0.5;entryDx=0;entryDy=0;" edge="1" parent="1" source="45" target="42"><mxGeometry relative="1" as="geometry"><mxPoint x="490" y="910" as="targetPoint"/><Array as="points"><mxPoint x="430" y="1060"/><mxPoint x="440" y="1050"/><mxPoint x="440" y="1030"/><mxPoint x="440" y="1010"/><mxPoint x="440" y="1060"/><mxPoint x="440" y="1000"/></Array></mxGeometry></mxCell><mxCell id="45" value="Telefono" style="ellipse;whiteSpace=wrap;html=1;align=center;fillColor=#f8cecc;strokeColor=#b85450;" vertex="1" parent="1"><mxGeometry x="230" y="1040" width="100" height="40" as="geometry"/></mxCell><mxCell id="51" style="edgeStyle=none;html=1;exitX=1;exitY=0.5;exitDx=0;exitDy=0;entryX=0;entryY=0.5;entryDx=0;entryDy=0;endArrow=none;endFill=0;" edge="1" parent="1" source="46" target="42"><mxGeometry relative="1" as="geometry"><Array as="points"><mxPoint x="440" y="1120"/><mxPoint x="440" y="1090"/><mxPoint x="440" y="1060"/><mxPoint x="440" y="1000"/></Array></mxGeometry></mxCell><mxCell id="46" value="Matricula" style="ellipse;whiteSpace=wrap;html=1;align=center;fillColor=#f8cecc;strokeColor=#b85450;" vertex="1" parent="1"><mxGeometry x="230" y="1100" width="100" height="40" as="geometry"/></mxCell></root></mxGraphModel></diagram><diagram id="URUeTBUaZ6COMfhjNmxo" name="Modelo Entidad-Relacion2 Biblioteca"><mxGraphModel dx="961" dy="690" grid="1" gridSize="10" guides="1" tooltips="1" connect="1" arrows="1" fold="1" page="1" pageScale="1" pageWidth="850" pageHeight="1100" math="0" shadow="0"><root><mxCell id="0"/><mxCell id="1" parent="0"/><mxCell id="vbrfXRIvBK3kQxer8NpI-1" value="Biblioteca" style="whiteSpace=wrap;html=1;align=center;fillColor=#dae8fc;strokeColor=#6c8ebf;" vertex="1" parent="1"><mxGeometry x="420" y="270" width="100" height="40" as="geometry"/></mxCell><mxCell id="dacM_RoBzNLrWfn9fjnk-6" style="edgeStyle=none;html=1;exitX=1;exitY=0.5;exitDx=0;exitDy=0;endArrow=baseDash;endFill=0;entryX=0;entryY=0.5;entryDx=0;entryDy=0;" edge="1" parent="1" source="zEuoCWJ9mqbc5P80Xah4-1" target="vbrfXRIvBK3kQxer8NpI-1"><mxGeometry relative="1" as="geometry"><mxPoint x="350" y="270" as="targetPoint"/><Array as="points"><mxPoint x="320" y="240"/><mxPoint x="320" y="260"/><mxPoint x="320" y="290"/></Array></mxGeometry></mxCell><mxCell id="zEuoCWJ9mqbc5P80Xah4-1" value="Nombre" style="ellipse;whiteSpace=wrap;html=1;align=center;fillColor=#dae8fc;strokeColor=#6c8ebf;" vertex="1" parent="1"><mxGeometry x="130" y="220" width="100" height="40" as="geometry"/></mxCell><mxCell id="dacM_RoBzNLrWfn9fjnk-5" style="edgeStyle=none;html=1;exitX=1;exitY=0.5;exitDx=0;exitDy=0;entryX=0;entryY=0.5;entryDx=0;entryDy=0;endArrow=baseDash;endFill=0;" edge="1" parent="1" source="zEuoCWJ9mqbc5P80Xah4-2" target="vbrfXRIvBK3kQxer8NpI-1"><mxGeometry relative="1" as="geometry"><Array as="points"><mxPoint x="320" y="180"/><mxPoint x="320" y="260"/><mxPoint x="320" y="290"/></Array></mxGeometry></mxCell><mxCell id="zEuoCWJ9mqbc5P80Xah4-2" value="ID libros" style="ellipse;whiteSpace=wrap;html=1;align=center;fontStyle=4;fillColor=#dae8fc;strokeColor=#6c8ebf;" vertex="1" parent="1"><mxGeometry x="130" y="160" width="100" height="40" as="geometry"/></mxCell><mxCell id="dacM_RoBzNLrWfn9fjnk-8" style="edgeStyle=none;html=1;exitX=1;exitY=0.5;exitDx=0;exitDy=0;endArrow=baseDash;endFill=0;entryX=0;entryY=0.5;entryDx=0;entryDy=0;" edge="1" parent="1" source="zEuoCWJ9mqbc5P80Xah4-4" target="vbrfXRIvBK3kQxer8NpI-1"><mxGeometry relative="1" as="geometry"><mxPoint x="350" y="270" as="targetPoint"/><Array as="points"><mxPoint x="320" y="340"/><mxPoint x="320" y="290"/></Array></mxGeometry></mxCell><mxCell id="zEuoCWJ9mqbc5P80Xah4-4" value="Telefono" style="ellipse;whiteSpace=wrap;html=1;align=center;dashed=1;fillColor=#dae8fc;strokeColor=#6c8ebf;" vertex="1" parent="1"><mxGeometry x="130" y="320" width="100" height="40" as="geometry"/></mxCell><mxCell id="dacM_RoBzNLrWfn9fjnk-9" style="edgeStyle=none;html=1;exitX=1;exitY=0.5;exitDx=0;exitDy=0;endArrow=baseDash;endFill=0;entryX=0;entryY=0.5;entryDx=0;entryDy=0;" edge="1" parent="1" source="dacM_RoBzNLrWfn9fjnk-1" target="vbrfXRIvBK3kQxer8NpI-1"><mxGeometry relative="1" as="geometry"><mxPoint x="350" y="270" as="targetPoint"/><Array as="points"><mxPoint x="320" y="390"/><mxPoint x="320" y="290"/></Array></mxGeometry></mxCell><mxCell id="dacM_RoBzNLrWfn9fjnk-1" value="Direccion&amp;nbsp;" style="ellipse;shape=doubleEllipse;margin=3;whiteSpace=wrap;html=1;align=center;fillColor=#dae8fc;strokeColor=#6c8ebf;" vertex="1" parent="1"><mxGeometry x="130" y="370" width="100" height="40" as="geometry"/></mxCell><mxCell id="dacM_RoBzNLrWfn9fjnk-7" style="edgeStyle=none;html=1;exitX=1;exitY=0.5;exitDx=0;exitDy=0;endArrow=baseDash;endFill=0;entryX=0;entryY=0.5;entryDx=0;entryDy=0;" edge="1" parent="1" source="dacM_RoBzNLrWfn9fjnk-4" target="vbrfXRIvBK3kQxer8NpI-1"><mxGeometry relative="1" as="geometry"><mxPoint x="350" y="270" as="targetPoint"/><Array as="points"><mxPoint x="320" y="290"/></Array></mxGeometry></mxCell><mxCell id="dacM_RoBzNLrWfn9fjnk-4" value="Personas" style="ellipse;whiteSpace=wrap;html=1;align=center;fillColor=#dae8fc;strokeColor=#6c8ebf;" vertex="1" parent="1"><mxGeometry x="130" y="270" width="100" height="40" as="geometry"/></mxCell><mxCell id="MczdFuzJpJGm0epq96r4-1" style="edgeStyle=none;html=1;exitX=0;exitY=0.5;exitDx=0;exitDy=0;entryX=1;entryY=0.5;entryDx=0;entryDy=0;endArrow=ERmany;endFill=0;" edge="1" parent="1" source="dacM_RoBzNLrWfn9fjnk-10" target="vbrfXRIvBK3kQxer8NpI-1"><mxGeometry relative="1" as="geometry"/></mxCell><mxCell id="MczdFuzJpJGm0epq96r4-2" style="edgeStyle=none;html=1;exitX=1;exitY=0.5;exitDx=0;exitDy=0;endArrow=none;endFill=0;" edge="1" parent="1" source="dacM_RoBzNLrWfn9fjnk-10"><mxGeometry relative="1" as="geometry"><mxPoint x="820" y="290" as="targetPoint"/></mxGeometry></mxCell><mxCell id="dacM_RoBzNLrWfn9fjnk-10" value="tiene" style="shape=rhombus;perimeter=rhombusPerimeter;whiteSpace=wrap;html=1;align=center;fillColor=#dae8fc;strokeColor=#6c8ebf;" vertex="1" parent="1"><mxGeometry x="610" y="260" width="120" height="60" as="geometry"/></mxCell><mxCell id="MczdFuzJpJGm0epq96r4-9" value="" style="edgeStyle=none;html=1;endArrow=none;endFill=0;" edge="1" parent="1" source="MczdFuzJpJGm0epq96r4-3" target="dacM_RoBzNLrWfn9fjnk-10"><mxGeometry relative="1" as="geometry"/></mxCell><mxCell id="MczdFuzJpJGm0epq96r4-3" value="ID Biblioteca" style="whiteSpace=wrap;html=1;align=center;fillColor=#dae8fc;strokeColor=#6c8ebf;" vertex="1" parent="1"><mxGeometry x="830" y="270" width="100" height="40" as="geometry"/></mxCell><mxCell id="MczdFuzJpJGm0epq96r4-11" style="edgeStyle=none;html=1;exitX=0;exitY=0.5;exitDx=0;exitDy=0;entryX=1;entryY=0.5;entryDx=0;entryDy=0;endArrow=baseDash;endFill=0;" edge="1" parent="1" source="MczdFuzJpJGm0epq96r4-4" target="MczdFuzJpJGm0epq96r4-3"><mxGeometry relative="1" as="geometry"><Array as="points"><mxPoint x="1070" y="280"/><mxPoint x="1020" y="280"/><mxPoint x="1020" y="330"/><mxPoint x="1020" y="290"/></Array></mxGeometry></mxCell><mxCell id="MczdFuzJpJGm0epq96r4-4" value="Blibiotecario" style="ellipse;whiteSpace=wrap;html=1;align=center;fillColor=#dae8fc;strokeColor=#6c8ebf;" vertex="1" parent="1"><mxGeometry x="1090" y="260" width="100" height="40" as="geometry"/></mxCell><mxCell id="MczdFuzJpJGm0epq96r4-12" style="edgeStyle=none;html=1;exitX=0;exitY=0.5;exitDx=0;exitDy=0;endArrow=baseDash;endFill=0;" edge="1" parent="1" source="sET8EtfDxjwgOq4SUBmR-1"><mxGeometry relative="1" as="geometry"><mxPoint x="930" y="290" as="targetPoint"/><mxPoint x="1090" y="360" as="sourcePoint"/><Array as="points"><mxPoint x="1020" y="360"/><mxPoint x="1020" y="290"/></Array></mxGeometry></mxCell><mxCell id="MczdFuzJpJGm0epq96r4-13" style="edgeStyle=none;html=1;exitX=0;exitY=0.5;exitDx=0;exitDy=0;endArrow=baseDash;endFill=0;" edge="1" parent="1" source="MczdFuzJpJGm0epq96r4-6"><mxGeometry relative="1" as="geometry"><mxPoint x="930" y="290" as="targetPoint"/><Array as="points"><mxPoint x="1070" y="440"/><mxPoint x="1020" y="440"/><mxPoint x="1020" y="290"/></Array></mxGeometry></mxCell><mxCell id="MczdFuzJpJGm0epq96r4-6" value="Direccion&amp;nbsp;" style="ellipse;whiteSpace=wrap;html=1;align=center;fillColor=#dae8fc;strokeColor=#6c8ebf;" vertex="1" parent="1"><mxGeometry x="1090" y="420" width="100" height="40" as="geometry"/></mxCell><mxCell id="MczdFuzJpJGm0epq96r4-10" style="edgeStyle=none;html=1;exitX=0;exitY=0.5;exitDx=0;exitDy=0;entryX=1;entryY=0.5;entryDx=0;entryDy=0;endArrow=baseDash;endFill=0;" edge="1" parent="1" source="MczdFuzJpJGm0epq96r4-7" target="MczdFuzJpJGm0epq96r4-3"><mxGeometry relative="1" as="geometry"><Array as="points"><mxPoint x="1020" y="210"/><mxPoint x="1020" y="290"/></Array></mxGeometry></mxCell><mxCell id="MczdFuzJpJGm0epq96r4-7" value="ID Biblioteca" style="ellipse;whiteSpace=wrap;html=1;align=center;fontStyle=4;fillColor=#dae8fc;strokeColor=#6c8ebf;" vertex="1" parent="1"><mxGeometry x="1090" y="190" width="100" height="40" as="geometry"/></mxCell><mxCell id="A1ahJ7jk2eTxm3jg6GMZ-4" style="edgeStyle=none;html=1;entryX=0.5;entryY=1;entryDx=0;entryDy=0;endArrow=ERmany;endFill=0;" edge="1" parent="1" source="A1ahJ7jk2eTxm3jg6GMZ-1" target="MczdFuzJpJGm0epq96r4-3"><mxGeometry relative="1" as="geometry"/></mxCell><mxCell id="A1ahJ7jk2eTxm3jg6GMZ-5" style="edgeStyle=none;html=1;exitX=0.5;exitY=1;exitDx=0;exitDy=0;endArrow=none;endFill=0;entryX=0.5;entryY=0;entryDx=0;entryDy=0;" edge="1" parent="1" source="A1ahJ7jk2eTxm3jg6GMZ-1" target="A1ahJ7jk2eTxm3jg6GMZ-6"><mxGeometry relative="1" as="geometry"><mxPoint x="880" y="610" as="targetPoint"/></mxGeometry></mxCell><mxCell id="A1ahJ7jk2eTxm3jg6GMZ-1" value="tiene" style="shape=rhombus;perimeter=rhombusPerimeter;whiteSpace=wrap;html=1;align=center;fillColor=#dae8fc;strokeColor=#6c8ebf;" vertex="1" parent="1"><mxGeometry x="820" y="440" width="120" height="60" as="geometry"/></mxCell><mxCell id="A1ahJ7jk2eTxm3jg6GMZ-6" value="ID Libros" style="whiteSpace=wrap;html=1;align=center;fillColor=#dae8fc;strokeColor=#6c8ebf;" vertex="1" parent="1"><mxGeometry x="830" y="620" width="100" height="40" as="geometry"/></mxCell><mxCell id="sET8EtfDxjwgOq4SUBmR-1" value="&lt;span style=&quot;border-bottom: 1px dotted&quot;&gt;ID Libros&lt;/span&gt;" style="ellipse;whiteSpace=wrap;html=1;align=center;fillColor=#dae8fc;strokeColor=#6c8ebf;" vertex="1" parent="1"><mxGeometry x="1090" y="340" width="100" height="40" as="geometry"/></mxCell><mxCell id="sET8EtfDxjwgOq4SUBmR-7" style="edgeStyle=none;html=1;exitX=1;exitY=0.5;exitDx=0;exitDy=0;entryX=0;entryY=0.5;entryDx=0;entryDy=0;endArrow=baseDash;endFill=0;" edge="1" parent="1" source="sET8EtfDxjwgOq4SUBmR-2" target="A1ahJ7jk2eTxm3jg6GMZ-6"><mxGeometry relative="1" as="geometry"/></mxCell><mxCell id="sET8EtfDxjwgOq4SUBmR-2" value="Autor" style="ellipse;whiteSpace=wrap;html=1;align=center;fillColor=#dae8fc;strokeColor=#6c8ebf;" vertex="1" parent="1"><mxGeometry x="620" y="620" width="100" height="40" as="geometry"/></mxCell><mxCell id="sET8EtfDxjwgOq4SUBmR-6" style="edgeStyle=none;html=1;exitX=1;exitY=0.5;exitDx=0;exitDy=0;entryX=0;entryY=0.5;entryDx=0;entryDy=0;endArrow=baseDash;endFill=0;" edge="1" parent="1" source="sET8EtfDxjwgOq4SUBmR-3" target="A1ahJ7jk2eTxm3jg6GMZ-6"><mxGeometry relative="1" as="geometry"><Array as="points"><mxPoint x="740" y="560"/><mxPoint x="770" y="560"/><mxPoint x="770" y="640"/></Array></mxGeometry></mxCell><mxCell id="sET8EtfDxjwgOq4SUBmR-3" value="ID Libros" style="ellipse;whiteSpace=wrap;html=1;align=center;fontStyle=4;fillColor=#dae8fc;strokeColor=#6c8ebf;" vertex="1" parent="1"><mxGeometry x="620" y="540" width="100" height="40" as="geometry"/></mxCell><mxCell id="sET8EtfDxjwgOq4SUBmR-8" style="edgeStyle=none;html=1;endArrow=baseDash;endFill=0;entryX=0;entryY=0.5;entryDx=0;entryDy=0;" edge="1" parent="1" source="sET8EtfDxjwgOq4SUBmR-4" target="A1ahJ7jk2eTxm3jg6GMZ-6"><mxGeometry relative="1" as="geometry"><mxPoint x="830" y="640" as="targetPoint"/><Array as="points"><mxPoint x="770" y="700"/><mxPoint x="770" y="690"/><mxPoint x="770" y="660"/><mxPoint x="770" y="650"/><mxPoint x="770" y="640"/><mxPoint x="780" y="640"/></Array></mxGeometry></mxCell><mxCell id="sET8EtfDxjwgOq4SUBmR-4" value="Titulo" style="ellipse;shape=doubleEllipse;margin=3;whiteSpace=wrap;html=1;align=center;fillColor=#dae8fc;strokeColor=#6c8ebf;" vertex="1" parent="1"><mxGeometry x="620" y="680" width="100" height="40" as="geometry"/></mxCell><mxCell id="sET8EtfDxjwgOq4SUBmR-9" style="edgeStyle=none;html=1;exitX=1;exitY=0.5;exitDx=0;exitDy=0;entryX=0;entryY=0.5;entryDx=0;entryDy=0;endArrow=baseDash;endFill=0;" edge="1" parent="1" source="sET8EtfDxjwgOq4SUBmR-5" target="A1ahJ7jk2eTxm3jg6GMZ-6"><mxGeometry relative="1" as="geometry"><Array as="points"><mxPoint x="770" y="770"/><mxPoint x="770" y="640"/></Array></mxGeometry></mxCell><mxCell id="sET8EtfDxjwgOq4SUBmR-5" value="Numero de paginas&amp;nbsp;" style="ellipse;whiteSpace=wrap;html=1;align=center;dashed=1;fillColor=#dae8fc;strokeColor=#6c8ebf;" vertex="1" parent="1"><mxGeometry x="620" y="750" width="100" height="40" as="geometry"/></mxCell></root></mxGraphModel></diagram><diagram id="1pzaVtdPGbsFGkWB-mtO" name="Modelo Entidad- Relacion3 Centro Comercial"><mxGraphModel dx="841" dy="604" grid="1" gridSize="10" guides="1" tooltips="1" connect="1" arrows="1" fold="1" page="1" pageScale="1" pageWidth="850" pageHeight="1100" math="0" shadow="0"><root><mxCell id="0"/><mxCell id="1" parent="0"/><mxCell id="B_2blpvldJo3rS8J0MBd-1" value="Centro comercial" style="whiteSpace=wrap;html=1;align=center;fillColor=#fff2cc;strokeColor=#d6b656;" vertex="1" parent="1"><mxGeometry x="290" y="180" width="100" height="40" as="geometry"/></mxCell><mxCell id="B_2blpvldJo3rS8J0MBd-11" style="edgeStyle=none;html=1;exitX=1;exitY=0.5;exitDx=0;exitDy=0;endArrow=baseDash;endFill=0;entryX=0;entryY=0.5;entryDx=0;entryDy=0;" edge="1" parent="1" source="B_2blpvldJo3rS8J0MBd-3" target="B_2blpvldJo3rS8J0MBd-1"><mxGeometry relative="1" as="geometry"><mxPoint x="300" y="170" as="targetPoint"/><Array as="points"><mxPoint x="240" y="280"/><mxPoint x="240" y="270"/><mxPoint x="240" y="200"/><mxPoint x="250" y="200"/></Array></mxGeometry></mxCell><mxCell id="B_2blpvldJo3rS8J0MBd-3" value="Numero de tiendas" style="ellipse;whiteSpace=wrap;html=1;align=center;dashed=1;fillColor=#fff2cc;strokeColor=#d6b656;" vertex="1" parent="1"><mxGeometry x="70" y="260" width="100" height="40" as="geometry"/></mxCell><mxCell id="B_2blpvldJo3rS8J0MBd-10" style="edgeStyle=none;html=1;exitX=1;exitY=0.5;exitDx=0;exitDy=0;entryX=0;entryY=0.5;entryDx=0;entryDy=0;endArrow=baseDash;endFill=0;" edge="1" parent="1" source="B_2blpvldJo3rS8J0MBd-4" target="B_2blpvldJo3rS8J0MBd-1"><mxGeometry relative="1" as="geometry"><Array as="points"><mxPoint x="240" y="210"/><mxPoint x="250" y="200"/><mxPoint x="310" y="200"/></Array></mxGeometry></mxCell><mxCell id="B_2blpvldJo3rS8J0MBd-4" value="Empleados" style="ellipse;whiteSpace=wrap;html=1;align=center;fillColor=#fff2cc;strokeColor=#d6b656;" vertex="1" parent="1"><mxGeometry x="70" y="190" width="100" height="40" as="geometry"/></mxCell><mxCell id="B_2blpvldJo3rS8J0MBd-9" style="edgeStyle=none;html=1;exitX=1;exitY=0.5;exitDx=0;exitDy=0;entryX=0;entryY=0.5;entryDx=0;entryDy=0;endArrow=baseDash;endFill=0;" edge="1" parent="1" source="B_2blpvldJo3rS8J0MBd-5" target="B_2blpvldJo3rS8J0MBd-1"><mxGeometry relative="1" as="geometry"><Array as="points"><mxPoint x="240" y="140"/><mxPoint x="240" y="200"/><mxPoint x="310" y="200"/></Array></mxGeometry></mxCell><mxCell id="B_2blpvldJo3rS8J0MBd-5" value="ID Centro comercial" style="ellipse;whiteSpace=wrap;html=1;align=center;fontStyle=4;fillColor=#fff2cc;strokeColor=#d6b656;" vertex="1" parent="1"><mxGeometry x="70" y="120" width="100" height="40" as="geometry"/></mxCell><mxCell id="B_2blpvldJo3rS8J0MBd-12" style="edgeStyle=none;html=1;exitX=1;exitY=0.5;exitDx=0;exitDy=0;endArrow=baseDash;endFill=0;entryX=0;entryY=0.5;entryDx=0;entryDy=0;" edge="1" parent="1" source="B_2blpvldJo3rS8J0MBd-6" target="B_2blpvldJo3rS8J0MBd-1"><mxGeometry relative="1" as="geometry"><mxPoint x="330" y="180" as="targetPoint"/><Array as="points"><mxPoint x="230" y="350"/><mxPoint x="240" y="350"/><mxPoint x="240" y="320"/><mxPoint x="240" y="260"/><mxPoint x="240" y="240"/><mxPoint x="240" y="200"/></Array></mxGeometry></mxCell><mxCell id="B_2blpvldJo3rS8J0MBd-6" value="Telefono" style="ellipse;whiteSpace=wrap;html=1;align=center;dashed=1;fillColor=#fff2cc;strokeColor=#d6b656;" vertex="1" parent="1"><mxGeometry x="70" y="330" width="100" height="40" as="geometry"/></mxCell><mxCell id="A8GrHy8vXgY9tOTSfRl3-1" style="edgeStyle=none;html=1;endArrow=ERmany;endFill=0;" edge="1" parent="1" source="B_2blpvldJo3rS8J0MBd-7" target="B_2blpvldJo3rS8J0MBd-1"><mxGeometry relative="1" as="geometry"/></mxCell><mxCell id="B_2blpvldJo3rS8J0MBd-7" value="tiene" style="shape=rhombus;perimeter=rhombusPerimeter;whiteSpace=wrap;html=1;align=center;fillColor=#fff2cc;strokeColor=#d6b656;" vertex="1" parent="1"><mxGeometry x="280" y="280" width="120" height="60" as="geometry"/></mxCell><mxCell id="FZb6V1PUtHJC5Kgk8j_9-11" style="edgeStyle=none;html=1;entryX=0.5;entryY=1;entryDx=0;entryDy=0;endArrow=ERmany;endFill=0;" edge="1" parent="1" source="B_2blpvldJo3rS8J0MBd-8" target="A8GrHy8vXgY9tOTSfRl3-2"><mxGeometry relative="1" as="geometry"/></mxCell><mxCell id="B_2blpvldJo3rS8J0MBd-8" value="tiene" style="shape=rhombus;perimeter=rhombusPerimeter;whiteSpace=wrap;html=1;align=center;fillColor=#fff2cc;strokeColor=#d6b656;" vertex="1" parent="1"><mxGeometry x="280" y="720" width="120" height="60" as="geometry"/></mxCell><mxCell id="FZb6V1PUtHJC5Kgk8j_9-1" style="edgeStyle=none;html=1;exitX=0.5;exitY=0;exitDx=0;exitDy=0;endArrow=none;endFill=0;" edge="1" parent="1" source="A8GrHy8vXgY9tOTSfRl3-2" target="B_2blpvldJo3rS8J0MBd-7"><mxGeometry relative="1" as="geometry"/></mxCell><mxCell id="A8GrHy8vXgY9tOTSfRl3-2" value="ID Centro Comercial" style="whiteSpace=wrap;html=1;align=center;fillColor=#fff2cc;strokeColor=#d6b656;" vertex="1" parent="1"><mxGeometry x="290" y="540" width="100" height="40" as="geometry"/></mxCell><mxCell id="FZb6V1PUtHJC5Kgk8j_9-8" style="edgeStyle=none;html=1;exitX=0;exitY=0.5;exitDx=0;exitDy=0;entryX=1;entryY=0.5;entryDx=0;entryDy=0;endArrow=baseDash;endFill=0;" edge="1" parent="1" source="FZb6V1PUtHJC5Kgk8j_9-2" target="A8GrHy8vXgY9tOTSfRl3-2"><mxGeometry relative="1" as="geometry"><Array as="points"><mxPoint x="440" y="480"/><mxPoint x="440" y="560"/></Array></mxGeometry></mxCell><mxCell id="FZb6V1PUtHJC5Kgk8j_9-2" value="ID Centro comercial" style="ellipse;whiteSpace=wrap;html=1;align=center;fontStyle=4;fillColor=#fff2cc;strokeColor=#d6b656;" vertex="1" parent="1"><mxGeometry x="520" y="460" width="100" height="40" as="geometry"/></mxCell><mxCell id="FZb6V1PUtHJC5Kgk8j_9-9" style="edgeStyle=none;html=1;exitX=0;exitY=0.5;exitDx=0;exitDy=0;endArrow=baseDash;endFill=0;entryX=1;entryY=0.5;entryDx=0;entryDy=0;" edge="1" parent="1" source="FZb6V1PUtHJC5Kgk8j_9-3" target="A8GrHy8vXgY9tOTSfRl3-2"><mxGeometry relative="1" as="geometry"><mxPoint x="360" y="550" as="targetPoint"/><Array as="points"><mxPoint x="440" y="680"/><mxPoint x="440" y="600"/><mxPoint x="440" y="560"/></Array></mxGeometry></mxCell><mxCell id="FZb6V1PUtHJC5Kgk8j_9-3" value="ID Empleados" style="ellipse;whiteSpace=wrap;html=1;align=center;dashed=1;fillColor=#fff2cc;strokeColor=#d6b656;" vertex="1" parent="1"><mxGeometry x="520" y="660" width="100" height="40" as="geometry"/></mxCell><mxCell id="FZb6V1PUtHJC5Kgk8j_9-7" style="edgeStyle=none;html=1;exitX=0;exitY=0.5;exitDx=0;exitDy=0;endArrow=baseDash;endFill=0;entryX=1;entryY=0.5;entryDx=0;entryDy=0;" edge="1" parent="1" source="FZb6V1PUtHJC5Kgk8j_9-4" target="A8GrHy8vXgY9tOTSfRl3-2"><mxGeometry relative="1" as="geometry"><mxPoint x="389.9999999999999" y="550.0000000000001" as="targetPoint"/><Array as="points"><mxPoint x="460" y="620"/><mxPoint x="440" y="610"/><mxPoint x="440" y="560"/></Array></mxGeometry></mxCell><mxCell id="FZb6V1PUtHJC5Kgk8j_9-4" value="Productos" style="ellipse;whiteSpace=wrap;html=1;align=center;fillColor=#fff2cc;strokeColor=#d6b656;" vertex="1" parent="1"><mxGeometry x="520" y="600" width="100" height="40" as="geometry"/></mxCell><mxCell id="FZb6V1PUtHJC5Kgk8j_9-6" style="edgeStyle=none;html=1;exitX=0;exitY=0.5;exitDx=0;exitDy=0;entryX=1;entryY=0.5;entryDx=0;entryDy=0;endArrow=baseDash;endFill=0;" edge="1" parent="1" source="FZb6V1PUtHJC5Kgk8j_9-5" target="A8GrHy8vXgY9tOTSfRl3-2"><mxGeometry relative="1" as="geometry"><Array as="points"><mxPoint x="520" y="560"/><mxPoint x="490" y="560"/><mxPoint x="440" y="560"/><mxPoint x="440" y="550"/><mxPoint x="440" y="620"/><mxPoint x="440" y="580"/><mxPoint x="440" y="570"/><mxPoint x="430" y="560"/><mxPoint x="420" y="560"/></Array></mxGeometry></mxCell><mxCell id="FZb6V1PUtHJC5Kgk8j_9-5" value="Clientes" style="ellipse;whiteSpace=wrap;html=1;align=center;fillColor=#fff2cc;strokeColor=#d6b656;" vertex="1" parent="1"><mxGeometry x="520" y="540" width="100" height="40" as="geometry"/></mxCell><mxCell id="FZb6V1PUtHJC5Kgk8j_9-13" style="edgeStyle=none;html=1;entryX=0.5;entryY=1;entryDx=0;entryDy=0;endArrow=none;endFill=0;" edge="1" parent="1" source="FZb6V1PUtHJC5Kgk8j_9-12" target="B_2blpvldJo3rS8J0MBd-8"><mxGeometry relative="1" as="geometry"/></mxCell><mxCell id="FZb6V1PUtHJC5Kgk8j_9-12" value="ID Empelados&amp;nbsp;" style="whiteSpace=wrap;html=1;align=center;fillColor=#fff2cc;strokeColor=#d6b656;" vertex="1" parent="1"><mxGeometry x="290" y="860" width="100" height="40" as="geometry"/></mxCell><mxCell id="lCuwXhvnuXEk0EySBrMi-2" style="edgeStyle=none;html=1;entryX=0;entryY=0.5;entryDx=0;entryDy=0;endArrow=baseDash;endFill=0;" edge="1" parent="1" source="yRtAQyQYtWZ3LHM0AnCh-1" target="FZb6V1PUtHJC5Kgk8j_9-12"><mxGeometry relative="1" as="geometry"/></mxCell><mxCell id="yRtAQyQYtWZ3LHM0AnCh-1" value="Nombres" style="ellipse;whiteSpace=wrap;html=1;align=center;fillColor=#fff2cc;strokeColor=#d6b656;" vertex="1" parent="1"><mxGeometry x="70" y="860" width="100" height="40" as="geometry"/></mxCell><mxCell id="lCuwXhvnuXEk0EySBrMi-1" style="edgeStyle=none;html=1;entryX=0;entryY=0.5;entryDx=0;entryDy=0;endArrow=baseDash;endFill=0;" edge="1" parent="1" source="yRtAQyQYtWZ3LHM0AnCh-2" target="FZb6V1PUtHJC5Kgk8j_9-12"><mxGeometry relative="1" as="geometry"><Array as="points"><mxPoint x="240" y="820"/><mxPoint x="240" y="880"/></Array></mxGeometry></mxCell><mxCell id="yRtAQyQYtWZ3LHM0AnCh-2" value="ID Empleados" style="ellipse;whiteSpace=wrap;html=1;align=center;fontStyle=4;fillColor=#fff2cc;strokeColor=#d6b656;" vertex="1" parent="1"><mxGeometry x="70" y="800" width="100" height="40" as="geometry"/></mxCell><mxCell id="lCuwXhvnuXEk0EySBrMi-3" style="edgeStyle=none;html=1;entryX=0;entryY=0.5;entryDx=0;entryDy=0;endArrow=baseDash;endFill=0;" edge="1" parent="1" source="EeVky7CB0wJuoVvA3wWO-1" target="FZb6V1PUtHJC5Kgk8j_9-12"><mxGeometry relative="1" as="geometry"><Array as="points"><mxPoint x="240" y="950"/><mxPoint x="240" y="880"/><mxPoint x="250" y="880"/></Array></mxGeometry></mxCell><mxCell id="EeVky7CB0wJuoVvA3wWO-1" value="Correo" style="ellipse;whiteSpace=wrap;html=1;align=center;fillColor=#fff2cc;strokeColor=#d6b656;" vertex="1" parent="1"><mxGeometry x="70" y="930" width="100" height="40" as="geometry"/></mxCell><mxCell id="lCuwXhvnuXEk0EySBrMi-4" style="edgeStyle=none;html=1;exitX=1;exitY=0.5;exitDx=0;exitDy=0;entryX=0;entryY=0.5;entryDx=0;entryDy=0;endArrow=baseDash;endFill=0;" edge="1" parent="1" source="EeVky7CB0wJuoVvA3wWO-2" target="FZb6V1PUtHJC5Kgk8j_9-12"><mxGeometry relative="1" as="geometry"><Array as="points"><mxPoint x="240" y="1010"/><mxPoint x="240" y="940"/><mxPoint x="240" y="880"/></Array></mxGeometry></mxCell><mxCell id="EeVky7CB0wJuoVvA3wWO-2" value="Edad" style="ellipse;whiteSpace=wrap;html=1;align=center;dashed=1;fillColor=#fff2cc;strokeColor=#d6b656;" vertex="1" parent="1"><mxGeometry x="70" y="990" width="100" height="40" as="geometry"/></mxCell><mxCell id="ncWaHj-SmgX_TARfFMaT-1" style="edgeStyle=none;html=1;entryX=0;entryY=0.5;entryDx=0;entryDy=0;endArrow=baseDash;endFill=0;exitX=1;exitY=0.5;exitDx=0;exitDy=0;" edge="1" parent="1" source="EeVky7CB0wJuoVvA3wWO-5" target="FZb6V1PUtHJC5Kgk8j_9-12"><mxGeometry relative="1" as="geometry"><Array as="points"><mxPoint x="240" y="1080"/><mxPoint x="240" y="1000"/><mxPoint x="240" y="880"/></Array></mxGeometry></mxCell><mxCell id="EeVky7CB0wJuoVvA3wWO-5" value="&lt;span style=&quot;border-bottom: 1px dotted&quot;&gt;ID Puesto&lt;/span&gt;" style="ellipse;whiteSpace=wrap;html=1;align=center;fillColor=#fff2cc;strokeColor=#d6b656;" vertex="1" parent="1"><mxGeometry x="70" y="1060" width="100" height="40" as="geometry"/></mxCell></root></mxGraphModel></diagram><diagram name=" Modelo Entidad- Relacion4 Hospital" id="Anw1KDopzL-sdltyv_ZB"><mxGraphModel dx="792" dy="568" grid="1" gridSize="10" guides="1" tooltips="1" connect="1" arrows="1" fold="1" page="1" pageScale="1" pageWidth="850" pageHeight="1100" math="0" shadow="0"><root><mxCell id="I7iMqp2jxwmYvUfUs_50-0"/><mxCell id="I7iMqp2jxwmYvUfUs_50-1" parent="I7iMqp2jxwmYvUfUs_50-0"/><mxCell id="I7iMqp2jxwmYvUfUs_50-2" value="Hospital" style="whiteSpace=wrap;html=1;align=center;fillColor=#d5e8d4;strokeColor=#82b366;" vertex="1" parent="I7iMqp2jxwmYvUfUs_50-1"><mxGeometry x="300" y="180" width="100" height="40" as="geometry"/></mxCell><mxCell id="I7iMqp2jxwmYvUfUs_50-3" style="edgeStyle=none;html=1;exitX=1;exitY=0.5;exitDx=0;exitDy=0;endArrow=baseDash;endFill=0;entryX=0;entryY=0.5;entryDx=0;entryDy=0;" edge="1" parent="I7iMqp2jxwmYvUfUs_50-1" source="I7iMqp2jxwmYvUfUs_50-4" target="I7iMqp2jxwmYvUfUs_50-2"><mxGeometry relative="1" as="geometry"><mxPoint x="300" y="170" as="targetPoint"/><Array as="points"><mxPoint x="240" y="280"/><mxPoint x="240" y="270"/><mxPoint x="240" y="200"/><mxPoint x="250" y="200"/></Array></mxGeometry></mxCell><mxCell id="I7iMqp2jxwmYvUfUs_50-4" value="Pacientes" style="ellipse;whiteSpace=wrap;html=1;align=center;dashed=1;fillColor=#d5e8d4;strokeColor=#82b366;" vertex="1" parent="I7iMqp2jxwmYvUfUs_50-1"><mxGeometry x="70" y="260" width="100" height="40" as="geometry"/></mxCell><mxCell id="I7iMqp2jxwmYvUfUs_50-5" style="edgeStyle=none;html=1;exitX=1;exitY=0.5;exitDx=0;exitDy=0;entryX=0;entryY=0.5;entryDx=0;entryDy=0;endArrow=baseDash;endFill=0;" edge="1" parent="I7iMqp2jxwmYvUfUs_50-1" source="I7iMqp2jxwmYvUfUs_50-6" target="I7iMqp2jxwmYvUfUs_50-2"><mxGeometry relative="1" as="geometry"><Array as="points"><mxPoint x="240" y="210"/><mxPoint x="250" y="200"/><mxPoint x="310" y="200"/></Array></mxGeometry></mxCell><mxCell id="I7iMqp2jxwmYvUfUs_50-6" value="Doctores" style="ellipse;whiteSpace=wrap;html=1;align=center;fillColor=#d5e8d4;strokeColor=#82b366;" vertex="1" parent="I7iMqp2jxwmYvUfUs_50-1"><mxGeometry x="70" y="190" width="100" height="40" as="geometry"/></mxCell><mxCell id="I7iMqp2jxwmYvUfUs_50-7" style="edgeStyle=none;html=1;exitX=1;exitY=0.5;exitDx=0;exitDy=0;entryX=0;entryY=0.5;entryDx=0;entryDy=0;endArrow=baseDash;endFill=0;" edge="1" parent="I7iMqp2jxwmYvUfUs_50-1" source="I7iMqp2jxwmYvUfUs_50-8" target="I7iMqp2jxwmYvUfUs_50-2"><mxGeometry relative="1" as="geometry"><Array as="points"><mxPoint x="240" y="140"/><mxPoint x="240" y="200"/><mxPoint x="310" y="200"/></Array></mxGeometry></mxCell><mxCell id="I7iMqp2jxwmYvUfUs_50-8" value="ID Hospital" style="ellipse;whiteSpace=wrap;html=1;align=center;fontStyle=4;fillColor=#d5e8d4;strokeColor=#82b366;" vertex="1" parent="I7iMqp2jxwmYvUfUs_50-1"><mxGeometry x="70" y="120" width="100" height="40" as="geometry"/></mxCell><mxCell id="I7iMqp2jxwmYvUfUs_50-9" style="edgeStyle=none;html=1;exitX=1;exitY=0.5;exitDx=0;exitDy=0;endArrow=baseDash;endFill=0;entryX=0;entryY=0.5;entryDx=0;entryDy=0;" edge="1" parent="I7iMqp2jxwmYvUfUs_50-1" source="I7iMqp2jxwmYvUfUs_50-10" target="I7iMqp2jxwmYvUfUs_50-2"><mxGeometry relative="1" as="geometry"><mxPoint x="330" y="180" as="targetPoint"/><Array as="points"><mxPoint x="230" y="350"/><mxPoint x="240" y="350"/><mxPoint x="240" y="320"/><mxPoint x="240" y="260"/><mxPoint x="240" y="240"/><mxPoint x="240" y="200"/></Array></mxGeometry></mxCell><mxCell id="I7iMqp2jxwmYvUfUs_50-10" value="Telefono" style="ellipse;whiteSpace=wrap;html=1;align=center;dashed=1;fillColor=#d5e8d4;strokeColor=#82b366;" vertex="1" parent="I7iMqp2jxwmYvUfUs_50-1"><mxGeometry x="70" y="330" width="100" height="40" as="geometry"/></mxCell><mxCell id="I7iMqp2jxwmYvUfUs_50-11" style="edgeStyle=none;html=1;endArrow=ERmany;endFill=0;" edge="1" parent="I7iMqp2jxwmYvUfUs_50-1" source="I7iMqp2jxwmYvUfUs_50-12" target="I7iMqp2jxwmYvUfUs_50-2"><mxGeometry relative="1" as="geometry"/></mxCell><mxCell id="I7iMqp2jxwmYvUfUs_50-12" value="tiene" style="shape=rhombus;perimeter=rhombusPerimeter;whiteSpace=wrap;html=1;align=center;fillColor=#d5e8d4;strokeColor=#82b366;" vertex="1" parent="I7iMqp2jxwmYvUfUs_50-1"><mxGeometry x="290" y="280" width="120" height="60" as="geometry"/></mxCell><mxCell id="I7iMqp2jxwmYvUfUs_50-13" style="edgeStyle=none;html=1;entryX=0.5;entryY=1;entryDx=0;entryDy=0;endArrow=ERmany;endFill=0;" edge="1" parent="I7iMqp2jxwmYvUfUs_50-1" source="I7iMqp2jxwmYvUfUs_50-14" target="I7iMqp2jxwmYvUfUs_50-16"><mxGeometry relative="1" as="geometry"/></mxCell><mxCell id="I7iMqp2jxwmYvUfUs_50-14" value="tiene" style="shape=rhombus;perimeter=rhombusPerimeter;whiteSpace=wrap;html=1;align=center;fillColor=#d5e8d4;strokeColor=#82b366;" vertex="1" parent="I7iMqp2jxwmYvUfUs_50-1"><mxGeometry x="290" y="720" width="120" height="60" as="geometry"/></mxCell><mxCell id="I7iMqp2jxwmYvUfUs_50-15" style="edgeStyle=none;html=1;exitX=0.5;exitY=0;exitDx=0;exitDy=0;endArrow=none;endFill=0;" edge="1" parent="I7iMqp2jxwmYvUfUs_50-1" source="I7iMqp2jxwmYvUfUs_50-16" target="I7iMqp2jxwmYvUfUs_50-12"><mxGeometry relative="1" as="geometry"/></mxCell><mxCell id="I7iMqp2jxwmYvUfUs_50-16" value="ID Hospital" style="whiteSpace=wrap;html=1;align=center;fillColor=#d5e8d4;strokeColor=#82b366;" vertex="1" parent="I7iMqp2jxwmYvUfUs_50-1"><mxGeometry x="300" y="540" width="100" height="40" as="geometry"/></mxCell><mxCell id="I7iMqp2jxwmYvUfUs_50-17" style="edgeStyle=none;html=1;exitX=0;exitY=0.5;exitDx=0;exitDy=0;entryX=1;entryY=0.5;entryDx=0;entryDy=0;endArrow=baseDash;endFill=0;" edge="1" parent="I7iMqp2jxwmYvUfUs_50-1" source="I7iMqp2jxwmYvUfUs_50-18" target="I7iMqp2jxwmYvUfUs_50-16"><mxGeometry relative="1" as="geometry"><Array as="points"><mxPoint x="440" y="480"/><mxPoint x="440" y="560"/></Array></mxGeometry></mxCell><mxCell id="I7iMqp2jxwmYvUfUs_50-18" value="ID Hospital" style="ellipse;whiteSpace=wrap;html=1;align=center;fontStyle=4;fillColor=#d5e8d4;strokeColor=#82b366;" vertex="1" parent="I7iMqp2jxwmYvUfUs_50-1"><mxGeometry x="520" y="460" width="100" height="40" as="geometry"/></mxCell><mxCell id="I7iMqp2jxwmYvUfUs_50-19" style="edgeStyle=none;html=1;exitX=0;exitY=0.5;exitDx=0;exitDy=0;endArrow=baseDash;endFill=0;entryX=1;entryY=0.5;entryDx=0;entryDy=0;" edge="1" parent="I7iMqp2jxwmYvUfUs_50-1" source="I7iMqp2jxwmYvUfUs_50-20" target="I7iMqp2jxwmYvUfUs_50-16"><mxGeometry relative="1" as="geometry"><mxPoint x="360" y="550" as="targetPoint"/><Array as="points"><mxPoint x="440" y="680"/><mxPoint x="440" y="600"/><mxPoint x="440" y="560"/></Array></mxGeometry></mxCell><mxCell id="I7iMqp2jxwmYvUfUs_50-20" value="ID Doctores" style="ellipse;whiteSpace=wrap;html=1;align=center;dashed=1;fillColor=#d5e8d4;strokeColor=#82b366;" vertex="1" parent="I7iMqp2jxwmYvUfUs_50-1"><mxGeometry x="520" y="660" width="100" height="40" as="geometry"/></mxCell><mxCell id="I7iMqp2jxwmYvUfUs_50-21" style="edgeStyle=none;html=1;exitX=0;exitY=0.5;exitDx=0;exitDy=0;endArrow=baseDash;endFill=0;entryX=1;entryY=0.5;entryDx=0;entryDy=0;" edge="1" parent="I7iMqp2jxwmYvUfUs_50-1" source="I7iMqp2jxwmYvUfUs_50-22" target="I7iMqp2jxwmYvUfUs_50-16"><mxGeometry relative="1" as="geometry"><mxPoint x="389.9999999999999" y="550.0000000000001" as="targetPoint"/><Array as="points"><mxPoint x="460" y="620"/><mxPoint x="440" y="610"/><mxPoint x="440" y="560"/></Array></mxGeometry></mxCell><mxCell id="I7iMqp2jxwmYvUfUs_50-22" value="Tipo de hospital" style="ellipse;whiteSpace=wrap;html=1;align=center;fillColor=#d5e8d4;strokeColor=#82b366;" vertex="1" parent="I7iMqp2jxwmYvUfUs_50-1"><mxGeometry x="520" y="600" width="100" height="40" as="geometry"/></mxCell><mxCell id="I7iMqp2jxwmYvUfUs_50-23" style="edgeStyle=none;html=1;exitX=0;exitY=0.5;exitDx=0;exitDy=0;entryX=1;entryY=0.5;entryDx=0;entryDy=0;endArrow=baseDash;endFill=0;" edge="1" parent="I7iMqp2jxwmYvUfUs_50-1" source="I7iMqp2jxwmYvUfUs_50-24" target="I7iMqp2jxwmYvUfUs_50-16"><mxGeometry relative="1" as="geometry"><Array as="points"><mxPoint x="520" y="560"/><mxPoint x="490" y="560"/><mxPoint x="440" y="560"/><mxPoint x="440" y="550"/><mxPoint x="440" y="620"/><mxPoint x="440" y="580"/><mxPoint x="440" y="570"/><mxPoint x="430" y="560"/><mxPoint x="420" y="560"/></Array></mxGeometry></mxCell><mxCell id="I7iMqp2jxwmYvUfUs_50-24" value="Direccion" style="ellipse;whiteSpace=wrap;html=1;align=center;fillColor=#d5e8d4;strokeColor=#82b366;" vertex="1" parent="I7iMqp2jxwmYvUfUs_50-1"><mxGeometry x="520" y="540" width="100" height="40" as="geometry"/></mxCell><mxCell id="I7iMqp2jxwmYvUfUs_50-25" style="edgeStyle=none;html=1;entryX=0.5;entryY=1;entryDx=0;entryDy=0;endArrow=none;endFill=0;" edge="1" parent="I7iMqp2jxwmYvUfUs_50-1" source="I7iMqp2jxwmYvUfUs_50-26" target="I7iMqp2jxwmYvUfUs_50-14"><mxGeometry relative="1" as="geometry"/></mxCell><mxCell id="I7iMqp2jxwmYvUfUs_50-26" value="ID Doctores" style="whiteSpace=wrap;html=1;align=center;fillColor=#d5e8d4;strokeColor=#82b366;" vertex="1" parent="I7iMqp2jxwmYvUfUs_50-1"><mxGeometry x="300" y="860" width="100" height="40" as="geometry"/></mxCell><mxCell id="I7iMqp2jxwmYvUfUs_50-27" style="edgeStyle=none;html=1;entryX=0;entryY=0.5;entryDx=0;entryDy=0;endArrow=baseDash;endFill=0;" edge="1" parent="I7iMqp2jxwmYvUfUs_50-1" source="I7iMqp2jxwmYvUfUs_50-28" target="I7iMqp2jxwmYvUfUs_50-26"><mxGeometry relative="1" as="geometry"/></mxCell><mxCell id="I7iMqp2jxwmYvUfUs_50-28" value="Nombre" style="ellipse;whiteSpace=wrap;html=1;align=center;fillColor=#d5e8d4;strokeColor=#82b366;" vertex="1" parent="I7iMqp2jxwmYvUfUs_50-1"><mxGeometry x="70" y="860" width="100" height="40" as="geometry"/></mxCell><mxCell id="I7iMqp2jxwmYvUfUs_50-29" style="edgeStyle=none;html=1;entryX=0;entryY=0.5;entryDx=0;entryDy=0;endArrow=baseDash;endFill=0;" edge="1" parent="I7iMqp2jxwmYvUfUs_50-1" source="I7iMqp2jxwmYvUfUs_50-30" target="I7iMqp2jxwmYvUfUs_50-26"><mxGeometry relative="1" as="geometry"><Array as="points"><mxPoint x="240" y="820"/><mxPoint x="240" y="880"/></Array></mxGeometry></mxCell><mxCell id="I7iMqp2jxwmYvUfUs_50-30" value="ID Doctores" style="ellipse;whiteSpace=wrap;html=1;align=center;fontStyle=4;fillColor=#d5e8d4;strokeColor=#82b366;" vertex="1" parent="I7iMqp2jxwmYvUfUs_50-1"><mxGeometry x="70" y="800" width="100" height="40" as="geometry"/></mxCell><mxCell id="I7iMqp2jxwmYvUfUs_50-31" style="edgeStyle=none;html=1;entryX=0;entryY=0.5;entryDx=0;entryDy=0;endArrow=baseDash;endFill=0;" edge="1" parent="I7iMqp2jxwmYvUfUs_50-1" source="I7iMqp2jxwmYvUfUs_50-32" target="I7iMqp2jxwmYvUfUs_50-26"><mxGeometry relative="1" as="geometry"><Array as="points"><mxPoint x="240" y="950"/><mxPoint x="240" y="880"/><mxPoint x="250" y="880"/></Array></mxGeometry></mxCell><mxCell id="I7iMqp2jxwmYvUfUs_50-32" value="Edad" style="ellipse;whiteSpace=wrap;html=1;align=center;fillColor=#d5e8d4;strokeColor=#82b366;" vertex="1" parent="I7iMqp2jxwmYvUfUs_50-1"><mxGeometry x="70" y="930" width="100" height="40" as="geometry"/></mxCell><mxCell id="I7iMqp2jxwmYvUfUs_50-33" style="edgeStyle=none;html=1;exitX=1;exitY=0.5;exitDx=0;exitDy=0;entryX=0;entryY=0.5;entryDx=0;entryDy=0;endArrow=baseDash;endFill=0;" edge="1" parent="I7iMqp2jxwmYvUfUs_50-1" source="I7iMqp2jxwmYvUfUs_50-34" target="I7iMqp2jxwmYvUfUs_50-26"><mxGeometry relative="1" as="geometry"><Array as="points"><mxPoint x="240" y="1010"/><mxPoint x="240" y="940"/><mxPoint x="240" y="880"/></Array></mxGeometry></mxCell><mxCell id="I7iMqp2jxwmYvUfUs_50-34" value="Puesto" style="ellipse;whiteSpace=wrap;html=1;align=center;dashed=1;fillColor=#d5e8d4;strokeColor=#82b366;" vertex="1" parent="I7iMqp2jxwmYvUfUs_50-1"><mxGeometry x="70" y="990" width="100" height="40" as="geometry"/></mxCell><mxCell id="BYkla1FSeh_LXzGUdBCg-0" style="edgeStyle=none;html=1;endArrow=none;endFill=0;entryX=0;entryY=0.5;entryDx=0;entryDy=0;" edge="1" parent="I7iMqp2jxwmYvUfUs_50-1" source="I7iMqp2jxwmYvUfUs_50-35" target="I7iMqp2jxwmYvUfUs_50-26"><mxGeometry relative="1" as="geometry"><mxPoint x="240" y="1010" as="targetPoint"/><Array as="points"><mxPoint x="240" y="1080"/><mxPoint x="240" y="880"/></Array></mxGeometry></mxCell><mxCell id="I7iMqp2jxwmYvUfUs_50-35" value="&lt;span style=&quot;border-bottom: 1px dotted&quot;&gt;ID Certificados&amp;nbsp;&lt;/span&gt;" style="ellipse;whiteSpace=wrap;html=1;align=center;fillColor=#d5e8d4;strokeColor=#82b366;" vertex="1" parent="I7iMqp2jxwmYvUfUs_50-1"><mxGeometry x="70" y="1060" width="100" height="40" as="geometry"/></mxCell></root></mxGraphModel></diagram><diagram id="M4avuRKMM2LqBYTPkwb9" name="Modelo Entidad- Relacion5 Tienda de mascotas"><mxGraphModel dx="897" dy="644" grid="1" gridSize="10" guides="1" tooltips="1" connect="1" arrows="1" fold="1" page="1" pageScale="1" pageWidth="850" pageHeight="1100" math="0" shadow="0"><root><mxCell id="0"/><mxCell id="1" parent="0"/><mxCell id="YmWhLO383-v6bhMk0Zqs-1" value="Tienda de Mascotas&amp;nbsp;" style="whiteSpace=wrap;html=1;align=center;fillColor=#fff2cc;gradientColor=#ffd966;strokeColor=#d6b656;" vertex="1" parent="1"><mxGeometry x="380" y="660" width="100" height="40" as="geometry"/></mxCell><mxCell id="YmWhLO383-v6bhMk0Zqs-7" style="edgeStyle=none;html=1;entryX=0;entryY=0.5;entryDx=0;entryDy=0;endArrow=baseDash;endFill=0;" edge="1" parent="1" source="YmWhLO383-v6bhMk0Zqs-2" target="YmWhLO383-v6bhMk0Zqs-1"><mxGeometry relative="1" as="geometry"><Array as="points"><mxPoint x="320" y="610"/><mxPoint x="320" y="680"/></Array></mxGeometry></mxCell><mxCell id="YmWhLO383-v6bhMk0Zqs-2" value="Nombre" style="ellipse;whiteSpace=wrap;html=1;align=center;fillColor=#fff2cc;strokeColor=#d6b656;gradientColor=#ffd966;" vertex="1" parent="1"><mxGeometry x="100" y="590" width="100" height="40" as="geometry"/></mxCell><mxCell id="YmWhLO383-v6bhMk0Zqs-8" style="edgeStyle=none;html=1;entryX=0;entryY=0.5;entryDx=0;entryDy=0;endArrow=baseDash;endFill=0;" edge="1" parent="1" source="YmWhLO383-v6bhMk0Zqs-3" target="YmWhLO383-v6bhMk0Zqs-1"><mxGeometry relative="1" as="geometry"><Array as="points"><mxPoint x="220" y="680"/><mxPoint x="330" y="680"/></Array></mxGeometry></mxCell><mxCell id="YmWhLO383-v6bhMk0Zqs-3" value="Telefono&amp;nbsp;" style="ellipse;whiteSpace=wrap;html=1;align=center;dashed=1;fillColor=#fff2cc;gradientColor=#ffd966;strokeColor=#d6b656;" vertex="1" parent="1"><mxGeometry x="100" y="660" width="100" height="40" as="geometry"/></mxCell><mxCell id="YmWhLO383-v6bhMk0Zqs-9" style="edgeStyle=none;html=1;entryX=0;entryY=0.5;entryDx=0;entryDy=0;endArrow=baseDash;endFill=0;exitX=1;exitY=0.5;exitDx=0;exitDy=0;" edge="1" parent="1" source="YmWhLO383-v6bhMk0Zqs-5" target="YmWhLO383-v6bhMk0Zqs-1"><mxGeometry relative="1" as="geometry"><mxPoint x="200" y="760" as="sourcePoint"/><Array as="points"><mxPoint x="320" y="760"/><mxPoint x="320" y="640"/><mxPoint x="320" y="610"/><mxPoint x="320" y="680"/></Array></mxGeometry></mxCell><mxCell id="YmWhLO383-v6bhMk0Zqs-5" value="ID Tienda de mascotas&amp;nbsp;" style="ellipse;whiteSpace=wrap;html=1;align=center;fontStyle=4;fillColor=#fff2cc;gradientColor=#ffd966;strokeColor=#d6b656;" vertex="1" parent="1"><mxGeometry x="100" y="740" width="100" height="40" as="geometry"/></mxCell><mxCell id="YmWhLO383-v6bhMk0Zqs-10" style="edgeStyle=none;html=1;entryX=0;entryY=0.5;entryDx=0;entryDy=0;endArrow=baseDash;endFill=0;" edge="1" parent="1" source="YmWhLO383-v6bhMk0Zqs-6" target="YmWhLO383-v6bhMk0Zqs-1"><mxGeometry relative="1" as="geometry"><Array as="points"><mxPoint x="220" y="840"/><mxPoint x="320" y="840"/><mxPoint x="320" y="610"/><mxPoint x="320" y="680"/></Array></mxGeometry></mxCell><mxCell id="z9UArlbTucFky4cxSJDn-11" value="" style="edgeStyle=none;html=1;endArrow=baseDash;endFill=0;" edge="1" parent="1" source="YmWhLO383-v6bhMk0Zqs-6" target="YmWhLO383-v6bhMk0Zqs-5"><mxGeometry relative="1" as="geometry"/></mxCell><mxCell id="YmWhLO383-v6bhMk0Zqs-6" value="Acessorios&amp;nbsp;" style="ellipse;shape=doubleEllipse;margin=3;whiteSpace=wrap;html=1;align=center;fillColor=#fff2cc;gradientColor=#ffd966;strokeColor=#d6b656;" vertex="1" parent="1"><mxGeometry x="100" y="820" width="100" height="40" as="geometry"/></mxCell><mxCell id="YmWhLO383-v6bhMk0Zqs-12" style="edgeStyle=none;html=1;entryX=0.5;entryY=1;entryDx=0;entryDy=0;endArrow=ERmany;endFill=0;" edge="1" parent="1" source="YmWhLO383-v6bhMk0Zqs-11" target="YmWhLO383-v6bhMk0Zqs-1"><mxGeometry relative="1" as="geometry"/></mxCell><mxCell id="YmWhLO383-v6bhMk0Zqs-11" value="Tiene" style="shape=rhombus;perimeter=rhombusPerimeter;whiteSpace=wrap;html=1;align=center;fillColor=#fff2cc;gradientColor=#ffd966;strokeColor=#d6b656;" vertex="1" parent="1"><mxGeometry x="370" y="820" width="120" height="60" as="geometry"/></mxCell><mxCell id="YmWhLO383-v6bhMk0Zqs-14" style="edgeStyle=none;html=1;endArrow=none;endFill=0;entryX=0.5;entryY=1;entryDx=0;entryDy=0;" edge="1" parent="1" source="YmWhLO383-v6bhMk0Zqs-13" target="YmWhLO383-v6bhMk0Zqs-11"><mxGeometry relative="1" as="geometry"><mxPoint x="430" y="890" as="targetPoint"/></mxGeometry></mxCell><mxCell id="YmWhLO383-v6bhMk0Zqs-13" value="ID TIenda de Mascota&amp;nbsp;" style="whiteSpace=wrap;html=1;align=center;fillColor=#fff2cc;gradientColor=#ffd966;strokeColor=#d6b656;" vertex="1" parent="1"><mxGeometry x="380" y="960" width="100" height="40" as="geometry"/></mxCell><mxCell id="rCIJHv5JV-SqwmrqYaHo-5" style="edgeStyle=none;html=1;entryX=0;entryY=0.5;entryDx=0;entryDy=0;endArrow=baseDash;endFill=0;" edge="1" parent="1" source="dMP9PIWXwe3j11LrXOA3-1" target="YmWhLO383-v6bhMk0Zqs-13"><mxGeometry relative="1" as="geometry"><Array as="points"><mxPoint x="330" y="1060"/><mxPoint x="330" y="980"/></Array></mxGeometry></mxCell><mxCell id="dMP9PIWXwe3j11LrXOA3-1" value="Correo&amp;nbsp;" style="ellipse;whiteSpace=wrap;html=1;align=center;dashed=1;fillColor=#fff2cc;gradientColor=#ffd966;strokeColor=#d6b656;" vertex="1" parent="1"><mxGeometry x="190" y="1040" width="100" height="40" as="geometry"/></mxCell><mxCell id="rCIJHv5JV-SqwmrqYaHo-4" style="edgeStyle=none;html=1;entryX=0;entryY=0.5;entryDx=0;entryDy=0;endArrow=baseDash;endFill=0;" edge="1" parent="1" source="dMP9PIWXwe3j11LrXOA3-2" target="YmWhLO383-v6bhMk0Zqs-13"><mxGeometry relative="1" as="geometry"/></mxCell><mxCell id="dMP9PIWXwe3j11LrXOA3-2" value="Ubicacion&amp;nbsp;" style="ellipse;whiteSpace=wrap;html=1;align=center;fillColor=#fff2cc;gradientColor=#ffd966;strokeColor=#d6b656;" vertex="1" parent="1"><mxGeometry x="190" y="960" width="100" height="40" as="geometry"/></mxCell><mxCell id="rCIJHv5JV-SqwmrqYaHo-3" style="edgeStyle=none;html=1;entryX=0;entryY=0.5;entryDx=0;entryDy=0;endArrow=baseDash;endFill=0;" edge="1" parent="1" source="rCIJHv5JV-SqwmrqYaHo-1" target="YmWhLO383-v6bhMk0Zqs-13"><mxGeometry relative="1" as="geometry"><Array as="points"><mxPoint x="330" y="900"/><mxPoint x="330" y="980"/><mxPoint x="360" y="980"/></Array></mxGeometry></mxCell><mxCell id="rCIJHv5JV-SqwmrqYaHo-1" value="ID tienda de mascotas" style="ellipse;whiteSpace=wrap;html=1;align=center;fontStyle=4;fillColor=#fff2cc;gradientColor=#ffd966;strokeColor=#d6b656;" vertex="1" parent="1"><mxGeometry x="190" y="880" width="100" height="40" as="geometry"/></mxCell><mxCell id="rCIJHv5JV-SqwmrqYaHo-6" style="edgeStyle=none;html=1;entryX=0;entryY=0.5;entryDx=0;entryDy=0;endArrow=baseDash;endFill=0;" edge="1" parent="1" source="rCIJHv5JV-SqwmrqYaHo-2" target="YmWhLO383-v6bhMk0Zqs-13"><mxGeometry relative="1" as="geometry"><Array as="points"><mxPoint x="330" y="1140"/><mxPoint x="330" y="980"/></Array></mxGeometry></mxCell><mxCell id="rCIJHv5JV-SqwmrqYaHo-2" value="&lt;span style=&quot;border-bottom: 1px dotted&quot;&gt;ID Mascotas&amp;nbsp;&lt;/span&gt;" style="ellipse;whiteSpace=wrap;html=1;align=center;fillColor=#fff2cc;gradientColor=#ffd966;strokeColor=#d6b656;" vertex="1" parent="1"><mxGeometry x="190" y="1120" width="100" height="40" as="geometry"/></mxCell><mxCell id="rCIJHv5JV-SqwmrqYaHo-9" style="edgeStyle=none;html=1;entryX=1;entryY=0.5;entryDx=0;entryDy=0;endArrow=ERmany;endFill=0;" edge="1" parent="1" source="rCIJHv5JV-SqwmrqYaHo-7" target="YmWhLO383-v6bhMk0Zqs-13"><mxGeometry relative="1" as="geometry"/></mxCell><mxCell id="rCIJHv5JV-SqwmrqYaHo-7" value="Tiene" style="shape=rhombus;perimeter=rhombusPerimeter;whiteSpace=wrap;html=1;align=center;fillColor=#fff2cc;gradientColor=#ffd966;strokeColor=#d6b656;" vertex="1" parent="1"><mxGeometry x="670" y="950" width="120" height="60" as="geometry"/></mxCell><mxCell id="rCIJHv5JV-SqwmrqYaHo-13" style="edgeStyle=none;html=1;entryX=0.5;entryY=1;entryDx=0;entryDy=0;endArrow=none;endFill=0;" edge="1" parent="1" source="rCIJHv5JV-SqwmrqYaHo-12" target="rCIJHv5JV-SqwmrqYaHo-7"><mxGeometry relative="1" as="geometry"/></mxCell><mxCell id="rCIJHv5JV-SqwmrqYaHo-12" value="ID Mascotas&amp;nbsp;" style="whiteSpace=wrap;html=1;align=center;fillColor=#fff2cc;gradientColor=#ffd966;strokeColor=#d6b656;" vertex="1" parent="1"><mxGeometry x="680" y="1180" width="100" height="40" as="geometry"/></mxCell><mxCell id="z9UArlbTucFky4cxSJDn-9" style="edgeStyle=none;html=1;entryX=0;entryY=0.5;entryDx=0;entryDy=0;endArrow=baseDash;endFill=0;exitX=1;exitY=0.5;exitDx=0;exitDy=0;" edge="1" parent="1" source="z9UArlbTucFky4cxSJDn-1" target="rCIJHv5JV-SqwmrqYaHo-12"><mxGeometry relative="1" as="geometry"><Array as="points"><mxPoint x="620" y="1280"/><mxPoint x="620" y="1270"/><mxPoint x="620" y="1200"/></Array></mxGeometry></mxCell><mxCell id="z9UArlbTucFky4cxSJDn-1" value="Tamaño" style="ellipse;whiteSpace=wrap;html=1;align=center;fillColor=#fff2cc;gradientColor=#ffd966;strokeColor=#d6b656;" vertex="1" parent="1"><mxGeometry x="440" y="1260" width="100" height="40" as="geometry"/></mxCell><mxCell id="z9UArlbTucFky4cxSJDn-6" style="edgeStyle=none;html=1;entryX=0;entryY=0.5;entryDx=0;entryDy=0;endArrow=baseDash;endFill=0;exitX=1;exitY=0.5;exitDx=0;exitDy=0;" edge="1" parent="1" source="z9UArlbTucFky4cxSJDn-2" target="rCIJHv5JV-SqwmrqYaHo-12"><mxGeometry relative="1" as="geometry"><mxPoint x="600" y="1060" as="sourcePoint"/><Array as="points"><mxPoint x="620" y="1070"/><mxPoint x="620" y="1200"/></Array></mxGeometry></mxCell><mxCell id="z9UArlbTucFky4cxSJDn-2" value="ID Mascotas" style="ellipse;whiteSpace=wrap;html=1;align=center;fontStyle=4;fillColor=#fff2cc;gradientColor=#ffd966;strokeColor=#d6b656;" vertex="1" parent="1"><mxGeometry x="440" y="1050" width="100" height="40" as="geometry"/></mxCell><mxCell id="z9UArlbTucFky4cxSJDn-8" style="edgeStyle=none;html=1;entryX=0;entryY=0.5;entryDx=0;entryDy=0;endArrow=baseDash;endFill=0;exitX=1;exitY=0.5;exitDx=0;exitDy=0;" edge="1" parent="1" source="z9UArlbTucFky4cxSJDn-3" target="rCIJHv5JV-SqwmrqYaHo-12"><mxGeometry relative="1" as="geometry"><Array as="points"><mxPoint x="560" y="1200"/><mxPoint x="640" y="1200"/></Array></mxGeometry></mxCell><mxCell id="z9UArlbTucFky4cxSJDn-3" value="Raza" style="ellipse;whiteSpace=wrap;html=1;align=center;dashed=1;fillColor=#fff2cc;gradientColor=#ffd966;strokeColor=#d6b656;" vertex="1" parent="1"><mxGeometry x="440" y="1180" width="100" height="40" as="geometry"/></mxCell><mxCell id="z9UArlbTucFky4cxSJDn-10" style="edgeStyle=none;html=1;entryX=0;entryY=0.5;entryDx=0;entryDy=0;endArrow=baseDash;endFill=0;exitX=1;exitY=0.5;exitDx=0;exitDy=0;" edge="1" parent="1" source="z9UArlbTucFky4cxSJDn-4" target="rCIJHv5JV-SqwmrqYaHo-12"><mxGeometry relative="1" as="geometry"><Array as="points"><mxPoint x="620" y="1350"/><mxPoint x="620" y="1200"/></Array></mxGeometry></mxCell><mxCell id="z9UArlbTucFky4cxSJDn-4" value="Color" style="ellipse;whiteSpace=wrap;html=1;align=center;fillColor=#fff2cc;gradientColor=#ffd966;strokeColor=#d6b656;" vertex="1" parent="1"><mxGeometry x="440" y="1330" width="100" height="40" as="geometry"/></mxCell><mxCell id="z9UArlbTucFky4cxSJDn-7" style="edgeStyle=none;html=1;endArrow=baseDash;endFill=0;entryX=0;entryY=0.5;entryDx=0;entryDy=0;exitX=1;exitY=0.5;exitDx=0;exitDy=0;" edge="1" parent="1" source="z9UArlbTucFky4cxSJDn-5" target="rCIJHv5JV-SqwmrqYaHo-12"><mxGeometry relative="1" as="geometry"><Array as="points"><mxPoint x="620" y="1140"/><mxPoint x="620" y="1200"/></Array></mxGeometry></mxCell><mxCell id="z9UArlbTucFky4cxSJDn-5" value="Nombre" style="ellipse;whiteSpace=wrap;html=1;align=center;fillColor=#fff2cc;gradientColor=#ffd966;strokeColor=#d6b656;" vertex="1" parent="1"><mxGeometry x="440" y="1120" width="100" height="40" as="geometry"/></mxCell></root></mxGraphModel></diagram><diagram id="bLs5eEVcdmyBEkhtcJMW" name="Modelo relacional1 Escuela"><mxGraphModel dx="1523" dy="483" grid="1" gridSize="10" guides="1" tooltips="1" connect="1" arrows="1" fold="1" page="1" pageScale="1" pageWidth="850" pageHeight="1100" math="0" shadow="0"><root><mxCell id="0"/><mxCell id="1" parent="0"/><mxCell id="OA-GMNma-WHAqxWzOPF2-1" value="Escuela " style="swimlane;childLayout=stackLayout;horizontal=1;startSize=30;horizontalStack=0;rounded=1;fontSize=14;fontStyle=0;strokeWidth=2;resizeParent=0;resizeLast=1;shadow=0;dashed=0;align=center;" vertex="1" parent="1"><mxGeometry x="70" y="120" width="160" height="130" as="geometry"/></mxCell><mxCell id="OA-GMNma-WHAqxWzOPF2-2" value="+ID_Escuela&#10;+IDTEscuela&#10;+CCT_de la_escuela&#10;+Telefono&#10;+Direccion &#10;+Alumnos &#10;" style="align=left;strokeColor=none;fillColor=none;spacingLeft=4;fontSize=12;verticalAlign=top;resizable=0;rotatable=0;part=1;" vertex="1" parent="OA-GMNma-WHAqxWzOPF2-1"><mxGeometry y="30" width="160" height="100" as="geometry"/></mxCell><mxCell id="OA-GMNma-WHAqxWzOPF2-3" value="ID_Alumno" style="swimlane;childLayout=stackLayout;horizontal=1;startSize=30;horizontalStack=0;rounded=1;fontSize=14;fontStyle=0;strokeWidth=2;resizeParent=0;resizeLast=1;shadow=0;dashed=0;align=center;" vertex="1" parent="1"><mxGeometry x="320" y="160" width="160" height="120" as="geometry"/></mxCell><mxCell id="OA-GMNma-WHAqxWzOPF2-4" value="+ID_Alumno &#10;+IDTalumno&#10;+Nombres&#10;+Telefono&#10;+Matricula&#10;" style="align=left;strokeColor=none;fillColor=none;spacingLeft=4;fontSize=12;verticalAlign=top;resizable=0;rotatable=0;part=1;" vertex="1" parent="OA-GMNma-WHAqxWzOPF2-3"><mxGeometry y="30" width="160" height="90" as="geometry"/></mxCell><mxCell id="OA-GMNma-WHAqxWzOPF2-5" value="ID_ Escuela" style="swimlane;childLayout=stackLayout;horizontal=1;startSize=30;horizontalStack=0;rounded=1;fontSize=14;fontStyle=0;strokeWidth=2;resizeParent=0;resizeLast=1;shadow=0;dashed=0;align=center;" vertex="1" parent="1"><mxGeometry x="70" y="299" width="160" height="120" as="geometry"><mxRectangle x="40" y="300" width="80" height="30" as="alternateBounds"/></mxGeometry></mxCell><mxCell id="OA-GMNma-WHAqxWzOPF2-6" value="+IDEscuela&#10;+ID_ Alumno&#10;+Calle&#10;+Carreras&#10;" style="align=left;strokeColor=none;fillColor=none;spacingLeft=4;fontSize=12;verticalAlign=top;resizable=0;rotatable=0;part=1;" vertex="1" parent="OA-GMNma-WHAqxWzOPF2-5"><mxGeometry y="30" width="160" height="90" as="geometry"/></mxCell><mxCell id="_v6A1EetiRw1T3EyFyiq-1" value="" style="edgeStyle=none;html=1;endArrow=baseDash;endFill=0;" edge="1" parent="1" source="i4-C-egz-pGd0XuicZk0-3" target="OA-GMNma-WHAqxWzOPF2-2"><mxGeometry relative="1" as="geometry"/></mxCell><mxCell id="i4-C-egz-pGd0XuicZk0-3" value="PK" style="text;html=1;align=center;verticalAlign=middle;resizable=0;points=[];autosize=1;strokeColor=none;fillColor=none;" vertex="1" parent="1"><mxGeometry x="30" y="140" width="40" height="30" as="geometry"/></mxCell><mxCell id="i4-C-egz-pGd0XuicZk0-4" value="FK" style="text;html=1;align=center;verticalAlign=middle;resizable=0;points=[];autosize=1;strokeColor=none;fillColor=none;" vertex="1" parent="1"><mxGeometry x="30" y="344" width="40" height="30" as="geometry"/></mxCell><mxCell id="_v6A1EetiRw1T3EyFyiq-2" value="PK" style="text;html=1;align=center;verticalAlign=middle;resizable=0;points=[];autosize=1;strokeColor=none;fillColor=none;" vertex="1" parent="1"><mxGeometry x="30" y="330" width="40" height="30" as="geometry"/></mxCell><mxCell id="_v6A1EetiRw1T3EyFyiq-4" value="FK" style="text;html=1;align=center;verticalAlign=middle;resizable=0;points=[];autosize=1;strokeColor=none;fillColor=none;" vertex="1" parent="1"><mxGeometry x="30" y="160" width="40" height="30" as="geometry"/></mxCell><mxCell id="_v6A1EetiRw1T3EyFyiq-5" value="" style="fontSize=12;html=1;endArrow=ERmandOne;exitX=0.125;exitY=0.967;exitDx=0;exitDy=0;exitPerimeter=0;" edge="1" parent="1"><mxGeometry width="100" height="100" relative="1" as="geometry"><mxPoint x="35" y="350.01" as="sourcePoint"/><mxPoint x="35" y="171" as="targetPoint"/><Array as="points"><mxPoint y="351"/><mxPoint y="171"/></Array></mxGeometry></mxCell><mxCell id="UChzNdbrEk40TJBXjbVj-2" value="PK&lt;br&gt;" style="text;html=1;align=center;verticalAlign=middle;resizable=0;points=[];autosize=1;strokeColor=none;fillColor=none;" vertex="1" parent="1"><mxGeometry x="270" y="185" width="40" height="30" as="geometry"/></mxCell><mxCell id="UChzNdbrEk40TJBXjbVj-3" value="FK" style="text;html=1;align=center;verticalAlign=middle;resizable=0;points=[];autosize=1;strokeColor=none;fillColor=none;" vertex="1" parent="1"><mxGeometry x="270" y="205" width="40" height="30" as="geometry"/></mxCell><mxCell id="UChzNdbrEk40TJBXjbVj-5" value="" style="fontSize=12;html=1;endArrow=ERmandOne;entryX=0.1;entryY=1.1;entryDx=0;entryDy=0;entryPerimeter=0;" edge="1" parent="1" target="_v6A1EetiRw1T3EyFyiq-2"><mxGeometry width="100" height="100" relative="1" as="geometry"><mxPoint x="278" y="198" as="sourcePoint"/><mxPoint x="33" y="330" as="targetPoint"/><Array as="points"><mxPoint x="258" y="198"/><mxPoint x="258" y="510"/><mxPoint x="-2" y="510"/><mxPoint x="-2" y="363"/></Array></mxGeometry></mxCell></root></mxGraphModel></diagram><diagram name=" Modelo relacional2 Biblioteca" id="wxBdOmZaemogOSTq_nb1"><mxGraphModel dx="1523" dy="483" grid="1" gridSize="10" guides="1" tooltips="1" connect="1" arrows="1" fold="1" page="1" pageScale="1" pageWidth="850" pageHeight="1100" math="0" shadow="0"><root><mxCell id="1pP_dBoOR0d5NL5DRJHd-0"/><mxCell id="1pP_dBoOR0d5NL5DRJHd-1" parent="1pP_dBoOR0d5NL5DRJHd-0"/><mxCell id="1pP_dBoOR0d5NL5DRJHd-2" value="Biblioteca" style="swimlane;childLayout=stackLayout;horizontal=1;startSize=30;horizontalStack=0;rounded=1;fontSize=14;fontStyle=0;strokeWidth=2;resizeParent=0;resizeLast=1;shadow=0;dashed=0;align=center;" vertex="1" parent="1pP_dBoOR0d5NL5DRJHd-1"><mxGeometry x="70" y="120" width="160" height="130" as="geometry"/></mxCell><mxCell id="1pP_dBoOR0d5NL5DRJHd-3" value="+ID_Biblioteca&#10;+IDTBiblioteca&#10;+Nombre &#10;+Personas&#10;+Telefono &#10;+Direccion  &#10;" style="align=left;strokeColor=none;fillColor=none;spacingLeft=4;fontSize=12;verticalAlign=top;resizable=0;rotatable=0;part=1;" vertex="1" parent="1pP_dBoOR0d5NL5DRJHd-2"><mxGeometry y="30" width="160" height="100" as="geometry"/></mxCell><mxCell id="1pP_dBoOR0d5NL5DRJHd-4" value="ID_Libros" style="swimlane;childLayout=stackLayout;horizontal=1;startSize=30;horizontalStack=0;rounded=1;fontSize=14;fontStyle=0;strokeWidth=2;resizeParent=0;resizeLast=1;shadow=0;dashed=0;align=center;" vertex="1" parent="1pP_dBoOR0d5NL5DRJHd-1"><mxGeometry x="320" y="160" width="160" height="120" as="geometry"/></mxCell><mxCell id="1pP_dBoOR0d5NL5DRJHd-5" value="+ID_Libros &#10;+IDTLibros&#10;+Autor&#10;+Titulo&#10;+Numero de paginas&#10;" style="align=left;strokeColor=none;fillColor=none;spacingLeft=4;fontSize=12;verticalAlign=top;resizable=0;rotatable=0;part=1;" vertex="1" parent="1pP_dBoOR0d5NL5DRJHd-4"><mxGeometry y="30" width="160" height="90" as="geometry"/></mxCell><mxCell id="1pP_dBoOR0d5NL5DRJHd-6" value="ID_Biblioteca" style="swimlane;childLayout=stackLayout;horizontal=1;startSize=30;horizontalStack=0;rounded=1;fontSize=14;fontStyle=0;strokeWidth=2;resizeParent=0;resizeLast=1;shadow=0;dashed=0;align=center;" vertex="1" parent="1pP_dBoOR0d5NL5DRJHd-1"><mxGeometry x="70" y="299" width="160" height="120" as="geometry"><mxRectangle x="40" y="300" width="80" height="30" as="alternateBounds"/></mxGeometry></mxCell><mxCell id="1pP_dBoOR0d5NL5DRJHd-7" value="+IDTBiblioteca&#10;+ID_Libros&#10;+Bibliotecario&#10;+Direccion&#10;" style="align=left;strokeColor=none;fillColor=none;spacingLeft=4;fontSize=12;verticalAlign=top;resizable=0;rotatable=0;part=1;" vertex="1" parent="1pP_dBoOR0d5NL5DRJHd-6"><mxGeometry y="30" width="160" height="90" as="geometry"/></mxCell><mxCell id="1pP_dBoOR0d5NL5DRJHd-8" value="" style="edgeStyle=none;html=1;endArrow=baseDash;endFill=0;" edge="1" parent="1pP_dBoOR0d5NL5DRJHd-1" source="1pP_dBoOR0d5NL5DRJHd-9" target="1pP_dBoOR0d5NL5DRJHd-3"><mxGeometry relative="1" as="geometry"/></mxCell><mxCell id="1pP_dBoOR0d5NL5DRJHd-9" value="PK" style="text;html=1;align=center;verticalAlign=middle;resizable=0;points=[];autosize=1;strokeColor=none;fillColor=none;" vertex="1" parent="1pP_dBoOR0d5NL5DRJHd-1"><mxGeometry x="30" y="140" width="40" height="30" as="geometry"/></mxCell><mxCell id="1pP_dBoOR0d5NL5DRJHd-10" value="FK" style="text;html=1;align=center;verticalAlign=middle;resizable=0;points=[];autosize=1;strokeColor=none;fillColor=none;" vertex="1" parent="1pP_dBoOR0d5NL5DRJHd-1"><mxGeometry x="30" y="344" width="40" height="30" as="geometry"/></mxCell><mxCell id="1pP_dBoOR0d5NL5DRJHd-11" value="PK" style="text;html=1;align=center;verticalAlign=middle;resizable=0;points=[];autosize=1;strokeColor=none;fillColor=none;" vertex="1" parent="1pP_dBoOR0d5NL5DRJHd-1"><mxGeometry x="30" y="330" width="40" height="30" as="geometry"/></mxCell><mxCell id="1pP_dBoOR0d5NL5DRJHd-12" value="FK" style="text;html=1;align=center;verticalAlign=middle;resizable=0;points=[];autosize=1;strokeColor=none;fillColor=none;" vertex="1" parent="1pP_dBoOR0d5NL5DRJHd-1"><mxGeometry x="30" y="160" width="40" height="30" as="geometry"/></mxCell><mxCell id="1pP_dBoOR0d5NL5DRJHd-13" value="" style="fontSize=12;html=1;endArrow=ERmandOne;exitX=0.125;exitY=0.967;exitDx=0;exitDy=0;exitPerimeter=0;" edge="1" parent="1pP_dBoOR0d5NL5DRJHd-1"><mxGeometry width="100" height="100" relative="1" as="geometry"><mxPoint x="35" y="350.01" as="sourcePoint"/><mxPoint x="35" y="171" as="targetPoint"/><Array as="points"><mxPoint y="351"/><mxPoint y="171"/></Array></mxGeometry></mxCell><mxCell id="1pP_dBoOR0d5NL5DRJHd-14" value="PK&lt;br&gt;" style="text;html=1;align=center;verticalAlign=middle;resizable=0;points=[];autosize=1;strokeColor=none;fillColor=none;" vertex="1" parent="1pP_dBoOR0d5NL5DRJHd-1"><mxGeometry x="270" y="185" width="40" height="30" as="geometry"/></mxCell><mxCell id="1pP_dBoOR0d5NL5DRJHd-15" value="FK" style="text;html=1;align=center;verticalAlign=middle;resizable=0;points=[];autosize=1;strokeColor=none;fillColor=none;" vertex="1" parent="1pP_dBoOR0d5NL5DRJHd-1"><mxGeometry x="270" y="205" width="40" height="30" as="geometry"/></mxCell><mxCell id="1pP_dBoOR0d5NL5DRJHd-16" value="" style="fontSize=12;html=1;endArrow=ERmandOne;entryX=0.1;entryY=1.1;entryDx=0;entryDy=0;entryPerimeter=0;" edge="1" parent="1pP_dBoOR0d5NL5DRJHd-1" target="1pP_dBoOR0d5NL5DRJHd-11"><mxGeometry width="100" height="100" relative="1" as="geometry"><mxPoint x="278" y="198" as="sourcePoint"/><mxPoint x="33" y="330" as="targetPoint"/><Array as="points"><mxPoint x="258" y="198"/><mxPoint x="258" y="510"/><mxPoint x="-2" y="510"/><mxPoint x="-2" y="363"/></Array></mxGeometry></mxCell></root></mxGraphModel></diagram><diagram name="Modelo Relacional3 Centro comercial " id="L5caQdVFG8wkFO3KxoSz"><mxGraphModel dx="1523" dy="483" grid="1" gridSize="10" guides="1" tooltips="1" connect="1" arrows="1" fold="1" page="1" pageScale="1" pageWidth="850" pageHeight="1100" math="0" shadow="0"><root><mxCell id="8s6T_MCMMAAtqd1cdy9g-0"/><mxCell id="8s6T_MCMMAAtqd1cdy9g-1" parent="8s6T_MCMMAAtqd1cdy9g-0"/><mxCell id="8s6T_MCMMAAtqd1cdy9g-2" value="Centro Comercial" style="swimlane;childLayout=stackLayout;horizontal=1;startSize=30;horizontalStack=0;rounded=1;fontSize=14;fontStyle=0;strokeWidth=2;resizeParent=0;resizeLast=1;shadow=0;dashed=0;align=center;" vertex="1" parent="8s6T_MCMMAAtqd1cdy9g-1"><mxGeometry x="70" y="120" width="160" height="130" as="geometry"/></mxCell><mxCell id="8s6T_MCMMAAtqd1cdy9g-3" value="+ID_Centro Comercial&#10;+IDTCentro Comercial &#10;+Empleados&#10;+Telefono&#10;+Numero de tiendas   &#10;" style="align=left;strokeColor=none;fillColor=none;spacingLeft=4;fontSize=12;verticalAlign=top;resizable=0;rotatable=0;part=1;" vertex="1" parent="8s6T_MCMMAAtqd1cdy9g-2"><mxGeometry y="30" width="160" height="100" as="geometry"/></mxCell><mxCell id="8s6T_MCMMAAtqd1cdy9g-4" value="ID_Empleados" style="swimlane;childLayout=stackLayout;horizontal=1;startSize=30;horizontalStack=0;rounded=1;fontSize=14;fontStyle=0;strokeWidth=2;resizeParent=0;resizeLast=1;shadow=0;dashed=0;align=center;" vertex="1" parent="8s6T_MCMMAAtqd1cdy9g-1"><mxGeometry x="320" y="160" width="160" height="120" as="geometry"/></mxCell><mxCell id="8s6T_MCMMAAtqd1cdy9g-5" value="+ID_Empleados&#10;+IDTEmpleados&#10;+Nombre&#10;+Correo&#10;+Puesto&#10;+Edad&#10;" style="align=left;strokeColor=none;fillColor=none;spacingLeft=4;fontSize=12;verticalAlign=top;resizable=0;rotatable=0;part=1;" vertex="1" parent="8s6T_MCMMAAtqd1cdy9g-4"><mxGeometry y="30" width="160" height="90" as="geometry"/></mxCell><mxCell id="8s6T_MCMMAAtqd1cdy9g-6" value="ID_Centro Comercial" style="swimlane;childLayout=stackLayout;horizontal=1;startSize=30;horizontalStack=0;rounded=1;fontSize=14;fontStyle=0;strokeWidth=2;resizeParent=0;resizeLast=1;shadow=0;dashed=0;align=center;" vertex="1" parent="8s6T_MCMMAAtqd1cdy9g-1"><mxGeometry x="70" y="299" width="160" height="120" as="geometry"><mxRectangle x="40" y="300" width="80" height="30" as="alternateBounds"/></mxGeometry></mxCell><mxCell id="8s6T_MCMMAAtqd1cdy9g-7" value="+IDTCentro Comercial&#10;+ID_Empelados&#10;+Clientes&#10;+Productos&#10;" style="align=left;strokeColor=none;fillColor=none;spacingLeft=4;fontSize=12;verticalAlign=top;resizable=0;rotatable=0;part=1;" vertex="1" parent="8s6T_MCMMAAtqd1cdy9g-6"><mxGeometry y="30" width="160" height="90" as="geometry"/></mxCell><mxCell id="8s6T_MCMMAAtqd1cdy9g-8" value="" style="edgeStyle=none;html=1;endArrow=baseDash;endFill=0;" edge="1" parent="8s6T_MCMMAAtqd1cdy9g-1" source="8s6T_MCMMAAtqd1cdy9g-9" target="8s6T_MCMMAAtqd1cdy9g-3"><mxGeometry relative="1" as="geometry"/></mxCell><mxCell id="8s6T_MCMMAAtqd1cdy9g-9" value="PK" style="text;html=1;align=center;verticalAlign=middle;resizable=0;points=[];autosize=1;strokeColor=none;fillColor=none;" vertex="1" parent="8s6T_MCMMAAtqd1cdy9g-1"><mxGeometry x="30" y="140" width="40" height="30" as="geometry"/></mxCell><mxCell id="8s6T_MCMMAAtqd1cdy9g-10" value="FK" style="text;html=1;align=center;verticalAlign=middle;resizable=0;points=[];autosize=1;strokeColor=none;fillColor=none;" vertex="1" parent="8s6T_MCMMAAtqd1cdy9g-1"><mxGeometry x="30" y="344" width="40" height="30" as="geometry"/></mxCell><mxCell id="8s6T_MCMMAAtqd1cdy9g-11" value="PK" style="text;html=1;align=center;verticalAlign=middle;resizable=0;points=[];autosize=1;strokeColor=none;fillColor=none;" vertex="1" parent="8s6T_MCMMAAtqd1cdy9g-1"><mxGeometry x="30" y="330" width="40" height="30" as="geometry"/></mxCell><mxCell id="8s6T_MCMMAAtqd1cdy9g-12" value="FK" style="text;html=1;align=center;verticalAlign=middle;resizable=0;points=[];autosize=1;strokeColor=none;fillColor=none;" vertex="1" parent="8s6T_MCMMAAtqd1cdy9g-1"><mxGeometry x="30" y="160" width="40" height="30" as="geometry"/></mxCell><mxCell id="8s6T_MCMMAAtqd1cdy9g-13" value="" style="fontSize=12;html=1;endArrow=ERmandOne;exitX=0.125;exitY=0.967;exitDx=0;exitDy=0;exitPerimeter=0;" edge="1" parent="8s6T_MCMMAAtqd1cdy9g-1"><mxGeometry width="100" height="100" relative="1" as="geometry"><mxPoint x="35" y="350.01" as="sourcePoint"/><mxPoint x="35" y="171" as="targetPoint"/><Array as="points"><mxPoint y="351"/><mxPoint y="171"/></Array></mxGeometry></mxCell><mxCell id="8s6T_MCMMAAtqd1cdy9g-14" value="PK&lt;br&gt;" style="text;html=1;align=center;verticalAlign=middle;resizable=0;points=[];autosize=1;strokeColor=none;fillColor=none;" vertex="1" parent="8s6T_MCMMAAtqd1cdy9g-1"><mxGeometry x="270" y="185" width="40" height="30" as="geometry"/></mxCell><mxCell id="8s6T_MCMMAAtqd1cdy9g-15" value="FK" style="text;html=1;align=center;verticalAlign=middle;resizable=0;points=[];autosize=1;strokeColor=none;fillColor=none;" vertex="1" parent="8s6T_MCMMAAtqd1cdy9g-1"><mxGeometry x="270" y="205" width="40" height="30" as="geometry"/></mxCell><mxCell id="8s6T_MCMMAAtqd1cdy9g-16" value="" style="fontSize=12;html=1;endArrow=ERmandOne;entryX=0.1;entryY=1.1;entryDx=0;entryDy=0;entryPerimeter=0;" edge="1" parent="8s6T_MCMMAAtqd1cdy9g-1" target="8s6T_MCMMAAtqd1cdy9g-11"><mxGeometry width="100" height="100" relative="1" as="geometry"><mxPoint x="278" y="198" as="sourcePoint"/><mxPoint x="33" y="330" as="targetPoint"/><Array as="points"><mxPoint x="258" y="198"/><mxPoint x="258" y="510"/><mxPoint x="-2" y="510"/><mxPoint x="-2" y="363"/></Array></mxGeometry></mxCell><mxCell id="esLTrmy_wqN0x2YMPD65-1" style="edgeStyle=none;html=1;exitX=0.5;exitY=1;exitDx=0;exitDy=0;endArrow=baseDash;endFill=0;" edge="1" parent="8s6T_MCMMAAtqd1cdy9g-1" source="8s6T_MCMMAAtqd1cdy9g-5"><mxGeometry relative="1" as="geometry"><mxPoint x="400" y="290" as="targetPoint"/></mxGeometry></mxCell></root></mxGraphModel></diagram><diagram name=" Modelo Relacional4 Hospital" id="WUikY6BT1R4yXzvtdoCP"><mxGraphModel dx="1523" dy="483" grid="1" gridSize="10" guides="1" tooltips="1" connect="1" arrows="1" fold="1" page="1" pageScale="1" pageWidth="850" pageHeight="1100" math="0" shadow="0"><root><mxCell id="dxzaBROrTWQtd7RtPnGI-0"/><mxCell id="dxzaBROrTWQtd7RtPnGI-1" parent="dxzaBROrTWQtd7RtPnGI-0"/><mxCell id="dxzaBROrTWQtd7RtPnGI-2" value="Hospital" style="swimlane;childLayout=stackLayout;horizontal=1;startSize=30;horizontalStack=0;rounded=1;fontSize=14;fontStyle=0;strokeWidth=2;resizeParent=0;resizeLast=1;shadow=0;dashed=0;align=center;" vertex="1" parent="dxzaBROrTWQtd7RtPnGI-1"><mxGeometry x="70" y="120" width="160" height="130" as="geometry"/></mxCell><mxCell id="dxzaBROrTWQtd7RtPnGI-3" value="+ID_Hospital&#10;+IDTHospital&#10;+Doctores&#10;+Pacientes&#10;+Telefono   &#10;" style="align=left;strokeColor=none;fillColor=none;spacingLeft=4;fontSize=12;verticalAlign=top;resizable=0;rotatable=0;part=1;" vertex="1" parent="dxzaBROrTWQtd7RtPnGI-2"><mxGeometry y="30" width="160" height="100" as="geometry"/></mxCell><mxCell id="dxzaBROrTWQtd7RtPnGI-4" value="ID_Doctores" style="swimlane;childLayout=stackLayout;horizontal=1;startSize=30;horizontalStack=0;rounded=1;fontSize=14;fontStyle=0;strokeWidth=2;resizeParent=0;resizeLast=1;shadow=0;dashed=0;align=center;" vertex="1" parent="dxzaBROrTWQtd7RtPnGI-1"><mxGeometry x="320" y="160" width="160" height="120" as="geometry"/></mxCell><mxCell id="dxzaBROrTWQtd7RtPnGI-5" value="+ID_Doctores&#10;+IDTDoctores&#10;+Ceritificados&#10;+Nombre&#10;+Puesto&#10;+Edad&#10;" style="align=left;strokeColor=none;fillColor=none;spacingLeft=4;fontSize=12;verticalAlign=top;resizable=0;rotatable=0;part=1;" vertex="1" parent="dxzaBROrTWQtd7RtPnGI-4"><mxGeometry y="30" width="160" height="90" as="geometry"/></mxCell><mxCell id="dxzaBROrTWQtd7RtPnGI-6" value="ID_Hospital" style="swimlane;childLayout=stackLayout;horizontal=1;startSize=30;horizontalStack=0;rounded=1;fontSize=14;fontStyle=0;strokeWidth=2;resizeParent=0;resizeLast=1;shadow=0;dashed=0;align=center;" vertex="1" parent="dxzaBROrTWQtd7RtPnGI-1"><mxGeometry x="70" y="299" width="160" height="120" as="geometry"><mxRectangle x="40" y="300" width="80" height="30" as="alternateBounds"/></mxGeometry></mxCell><mxCell id="dxzaBROrTWQtd7RtPnGI-7" value="+IDTHospital&#10;+ID_Doctores&#10;+Direccion&#10;+Tipo de Hospital&#10;" style="align=left;strokeColor=none;fillColor=none;spacingLeft=4;fontSize=12;verticalAlign=top;resizable=0;rotatable=0;part=1;" vertex="1" parent="dxzaBROrTWQtd7RtPnGI-6"><mxGeometry y="30" width="160" height="90" as="geometry"/></mxCell><mxCell id="dxzaBROrTWQtd7RtPnGI-8" value="" style="edgeStyle=none;html=1;endArrow=baseDash;endFill=0;" edge="1" parent="dxzaBROrTWQtd7RtPnGI-1" source="dxzaBROrTWQtd7RtPnGI-9" target="dxzaBROrTWQtd7RtPnGI-3"><mxGeometry relative="1" as="geometry"/></mxCell><mxCell id="dxzaBROrTWQtd7RtPnGI-9" value="PK" style="text;html=1;align=center;verticalAlign=middle;resizable=0;points=[];autosize=1;strokeColor=none;fillColor=none;" vertex="1" parent="dxzaBROrTWQtd7RtPnGI-1"><mxGeometry x="30" y="140" width="40" height="30" as="geometry"/></mxCell><mxCell id="dxzaBROrTWQtd7RtPnGI-10" value="FK" style="text;html=1;align=center;verticalAlign=middle;resizable=0;points=[];autosize=1;strokeColor=none;fillColor=none;" vertex="1" parent="dxzaBROrTWQtd7RtPnGI-1"><mxGeometry x="30" y="344" width="40" height="30" as="geometry"/></mxCell><mxCell id="dxzaBROrTWQtd7RtPnGI-11" value="PK" style="text;html=1;align=center;verticalAlign=middle;resizable=0;points=[];autosize=1;strokeColor=none;fillColor=none;" vertex="1" parent="dxzaBROrTWQtd7RtPnGI-1"><mxGeometry x="30" y="330" width="40" height="30" as="geometry"/></mxCell><mxCell id="dxzaBROrTWQtd7RtPnGI-12" value="FK" style="text;html=1;align=center;verticalAlign=middle;resizable=0;points=[];autosize=1;strokeColor=none;fillColor=none;" vertex="1" parent="dxzaBROrTWQtd7RtPnGI-1"><mxGeometry x="30" y="160" width="40" height="30" as="geometry"/></mxCell><mxCell id="dxzaBROrTWQtd7RtPnGI-13" value="" style="fontSize=12;html=1;endArrow=ERmandOne;exitX=0.125;exitY=0.967;exitDx=0;exitDy=0;exitPerimeter=0;" edge="1" parent="dxzaBROrTWQtd7RtPnGI-1"><mxGeometry width="100" height="100" relative="1" as="geometry"><mxPoint x="35" y="350.01" as="sourcePoint"/><mxPoint x="35" y="171" as="targetPoint"/><Array as="points"><mxPoint y="351"/><mxPoint y="171"/></Array></mxGeometry></mxCell><mxCell id="dxzaBROrTWQtd7RtPnGI-14" value="PK&lt;br&gt;" style="text;html=1;align=center;verticalAlign=middle;resizable=0;points=[];autosize=1;strokeColor=none;fillColor=none;" vertex="1" parent="dxzaBROrTWQtd7RtPnGI-1"><mxGeometry x="270" y="185" width="40" height="30" as="geometry"/></mxCell><mxCell id="dxzaBROrTWQtd7RtPnGI-15" value="FK" style="text;html=1;align=center;verticalAlign=middle;resizable=0;points=[];autosize=1;strokeColor=none;fillColor=none;" vertex="1" parent="dxzaBROrTWQtd7RtPnGI-1"><mxGeometry x="270" y="205" width="40" height="30" as="geometry"/></mxCell><mxCell id="dxzaBROrTWQtd7RtPnGI-16" value="" style="fontSize=12;html=1;endArrow=ERmandOne;entryX=0.1;entryY=1.1;entryDx=0;entryDy=0;entryPerimeter=0;" edge="1" parent="dxzaBROrTWQtd7RtPnGI-1" target="dxzaBROrTWQtd7RtPnGI-11"><mxGeometry width="100" height="100" relative="1" as="geometry"><mxPoint x="278" y="198" as="sourcePoint"/><mxPoint x="33" y="330" as="targetPoint"/><Array as="points"><mxPoint x="258" y="198"/><mxPoint x="258" y="510"/><mxPoint x="-2" y="510"/><mxPoint x="-2" y="363"/></Array></mxGeometry></mxCell><mxCell id="dxzaBROrTWQtd7RtPnGI-17" style="edgeStyle=none;html=1;exitX=0.5;exitY=1;exitDx=0;exitDy=0;endArrow=baseDash;endFill=0;" edge="1" parent="dxzaBROrTWQtd7RtPnGI-1" source="dxzaBROrTWQtd7RtPnGI-5"><mxGeometry relative="1" as="geometry"><mxPoint x="400" y="290" as="targetPoint"/></mxGeometry></mxCell></root></mxGraphModel></diagram><diagram name="Modelo Relacional5 Tienda de Mascotas" id="ite2QrZI3ikUVCJgxZ_K"><mxGraphModel dx="1523" dy="483" grid="1" gridSize="10" guides="1" tooltips="1" connect="1" arrows="1" fold="1" page="1" pageScale="1" pageWidth="850" pageHeight="1100" math="0" shadow="0"><root><mxCell id="-wH5ZZILmwMfSr13zSZp-0"/><mxCell id="-wH5ZZILmwMfSr13zSZp-1" parent="-wH5ZZILmwMfSr13zSZp-0"/><mxCell id="-wH5ZZILmwMfSr13zSZp-2" value="Tienda de Mascotas " style="swimlane;childLayout=stackLayout;horizontal=1;startSize=30;horizontalStack=0;rounded=1;fontSize=14;fontStyle=0;strokeWidth=2;resizeParent=0;resizeLast=1;shadow=0;dashed=0;align=center;" vertex="1" parent="-wH5ZZILmwMfSr13zSZp-1"><mxGeometry x="70" y="120" width="160" height="130" as="geometry"/></mxCell><mxCell id="-wH5ZZILmwMfSr13zSZp-3" value="+ID_Tienda de mascotas&#10;+IDTtienda de mascotas&#10;+Nombre &#10;+Telefono&#10;+Acessorios   &#10;" style="align=left;strokeColor=none;fillColor=none;spacingLeft=4;fontSize=12;verticalAlign=top;resizable=0;rotatable=0;part=1;" vertex="1" parent="-wH5ZZILmwMfSr13zSZp-2"><mxGeometry y="30" width="160" height="100" as="geometry"/></mxCell><mxCell id="-wH5ZZILmwMfSr13zSZp-4" value="ID_Mascotas" style="swimlane;childLayout=stackLayout;horizontal=1;startSize=30;horizontalStack=0;rounded=1;fontSize=14;fontStyle=0;strokeWidth=2;resizeParent=0;resizeLast=1;shadow=0;dashed=0;align=center;" vertex="1" parent="-wH5ZZILmwMfSr13zSZp-1"><mxGeometry x="320" y="160" width="160" height="120" as="geometry"/></mxCell><mxCell id="-wH5ZZILmwMfSr13zSZp-5" value="+ID_Mascotas&#10;+IDTMascotas&#10;+Nombre&#10;+Raza&#10;+Tamaño&#10;+Color&#10;" style="align=left;strokeColor=none;fillColor=none;spacingLeft=4;fontSize=12;verticalAlign=top;resizable=0;rotatable=0;part=1;" vertex="1" parent="-wH5ZZILmwMfSr13zSZp-4"><mxGeometry y="30" width="160" height="90" as="geometry"/></mxCell><mxCell id="-wH5ZZILmwMfSr13zSZp-6" value="ID_Tienda de Mascotas" style="swimlane;childLayout=stackLayout;horizontal=1;startSize=30;horizontalStack=0;rounded=1;fontSize=14;fontStyle=0;strokeWidth=2;resizeParent=0;resizeLast=1;shadow=0;dashed=0;align=center;" vertex="1" parent="-wH5ZZILmwMfSr13zSZp-1"><mxGeometry x="70" y="299" width="160" height="120" as="geometry"><mxRectangle x="40" y="300" width="80" height="30" as="alternateBounds"/></mxGeometry></mxCell><mxCell id="-wH5ZZILmwMfSr13zSZp-7" value="+IDTtienda de mascotas&#10;+ID_Mascotas&#10;+Ubicacion&#10;+Correo&#10;" style="align=left;strokeColor=none;fillColor=none;spacingLeft=4;fontSize=12;verticalAlign=top;resizable=0;rotatable=0;part=1;" vertex="1" parent="-wH5ZZILmwMfSr13zSZp-6"><mxGeometry y="30" width="160" height="90" as="geometry"/></mxCell><mxCell id="-wH5ZZILmwMfSr13zSZp-8" value="" style="edgeStyle=none;html=1;endArrow=baseDash;endFill=0;" edge="1" parent="-wH5ZZILmwMfSr13zSZp-1" source="-wH5ZZILmwMfSr13zSZp-9" target="-wH5ZZILmwMfSr13zSZp-3"><mxGeometry relative="1" as="geometry"/></mxCell><mxCell id="-wH5ZZILmwMfSr13zSZp-9" value="PK" style="text;html=1;align=center;verticalAlign=middle;resizable=0;points=[];autosize=1;strokeColor=none;fillColor=none;" vertex="1" parent="-wH5ZZILmwMfSr13zSZp-1"><mxGeometry x="30" y="140" width="40" height="30" as="geometry"/></mxCell><mxCell id="-wH5ZZILmwMfSr13zSZp-10" value="FK" style="text;html=1;align=center;verticalAlign=middle;resizable=0;points=[];autosize=1;strokeColor=none;fillColor=none;" vertex="1" parent="-wH5ZZILmwMfSr13zSZp-1"><mxGeometry x="30" y="344" width="40" height="30" as="geometry"/></mxCell><mxCell id="-wH5ZZILmwMfSr13zSZp-11" value="PK" style="text;html=1;align=center;verticalAlign=middle;resizable=0;points=[];autosize=1;strokeColor=none;fillColor=none;" vertex="1" parent="-wH5ZZILmwMfSr13zSZp-1"><mxGeometry x="30" y="330" width="40" height="30" as="geometry"/></mxCell><mxCell id="-wH5ZZILmwMfSr13zSZp-12" value="FK" style="text;html=1;align=center;verticalAlign=middle;resizable=0;points=[];autosize=1;strokeColor=none;fillColor=none;" vertex="1" parent="-wH5ZZILmwMfSr13zSZp-1"><mxGeometry x="30" y="160" width="40" height="30" as="geometry"/></mxCell><mxCell id="-wH5ZZILmwMfSr13zSZp-13" value="" style="fontSize=12;html=1;endArrow=ERmandOne;exitX=0.125;exitY=0.967;exitDx=0;exitDy=0;exitPerimeter=0;" edge="1" parent="-wH5ZZILmwMfSr13zSZp-1"><mxGeometry width="100" height="100" relative="1" as="geometry"><mxPoint x="35" y="350.01" as="sourcePoint"/><mxPoint x="35" y="171" as="targetPoint"/><Array as="points"><mxPoint y="351"/><mxPoint y="171"/></Array></mxGeometry></mxCell><mxCell id="-wH5ZZILmwMfSr13zSZp-14" value="PK&lt;br&gt;" style="text;html=1;align=center;verticalAlign=middle;resizable=0;points=[];autosize=1;strokeColor=none;fillColor=none;" vertex="1" parent="-wH5ZZILmwMfSr13zSZp-1"><mxGeometry x="270" y="185" width="40" height="30" as="geometry"/></mxCell><mxCell id="-wH5ZZILmwMfSr13zSZp-15" value="FK" style="text;html=1;align=center;verticalAlign=middle;resizable=0;points=[];autosize=1;strokeColor=none;fillColor=none;" vertex="1" parent="-wH5ZZILmwMfSr13zSZp-1"><mxGeometry x="270" y="205" width="40" height="30" as="geometry"/></mxCell><mxCell id="-wH5ZZILmwMfSr13zSZp-16" value="" style="fontSize=12;html=1;endArrow=ERmandOne;entryX=0.1;entryY=1.1;entryDx=0;entryDy=0;entryPerimeter=0;" edge="1" parent="-wH5ZZILmwMfSr13zSZp-1" target="-wH5ZZILmwMfSr13zSZp-11"><mxGeometry width="100" height="100" relative="1" as="geometry"><mxPoint x="278" y="198" as="sourcePoint"/><mxPoint x="33" y="330" as="targetPoint"/><Array as="points"><mxPoint x="258" y="198"/><mxPoint x="258" y="510"/><mxPoint x="-2" y="510"/><mxPoint x="-2" y="363"/></Array></mxGeometry></mxCell><mxCell id="-wH5ZZILmwMfSr13zSZp-17" style="edgeStyle=none;html=1;exitX=0.5;exitY=1;exitDx=0;exitDy=0;endArrow=baseDash;endFill=0;" edge="1" parent="-wH5ZZILmwMfSr13zSZp-1" source="-wH5ZZILmwMfSr13zSZp-5"><mxGeometry relative="1" as="geometry"><mxPoint x="400" y="290" as="targetPoint"/></mxGeometry></mxCell></root></mxGraphModel></diagram></mxfile>